<?xml version="1.0" encoding="utf-8"?>
<!-- Generator: Adobe Illustrator 27.5.0, SVG Export Plug-In . SVG Version: 6.00 Build 0)  -->
<svg version="1.1" id="Layer_1" xmlns="http://www.w3.org/2000/svg" xmlns:xlink="http://www.w3.org/1999/xlink" x="0px" y="0px"
	 viewBox="0 0 450 450" style="enable-background:new 0 0 450 450;" xml:space="preserve">
<rect style="fill:#FFFFFF;" width="450" height="450"/>
<g>
	<g>
		<path d="M334.619,69.845c-3.46,0-6.264,2.804-6.264,6.263c0,3.46,3.271,6.264,6.264,6.264c2.993,0,6.264-2.804,6.264-6.264
			C340.883,72.649,338.079,69.845,334.619,69.845z"/>
	</g>
	<g>
		<path d="M326.078,58.849c-0.525,0-0.998-0.368-1.109-0.903c-0.127-0.613,0.266-1.214,0.879-1.341l4.528-0.944l0.56-1.86
			c0.182-0.6,0.816-0.941,1.413-0.758c0.6,0.181,0.94,0.813,0.759,1.413l-0.756,2.505c-0.12,0.397-0.448,0.698-0.854,0.782
			l-5.188,1.082C326.232,58.841,326.154,58.849,326.078,58.849z"/>
	</g>
	<g>
		<path d="M353.084,64.695c-1.43,0.088-2.939,0.003-4.326-0.38c-0.05,0.593-0.107,1.205-0.198,1.845
			c-0.086,0.617-0.174,1.254-0.264,1.901c-0.12,0.634-0.241,1.278-0.362,1.921c-0.153,0.625-0.307,1.249-0.458,1.864
			c-0.188,0.588-0.359,1.176-0.555,1.716c-0.217,0.52-0.395,1.055-0.629,1.481c-0.206,0.462-0.44,0.832-0.647,1.176
			c-0.219,0.309-0.415,0.607-0.596,0.781c-0.175,0.211-0.324,0.319-0.419,0.398c-0.01,0.007-0.013,0.008-0.021,0.014l-0.049,0.019
			c-0.056,0.021-0.111,0.044-0.166,0.069c-1.512,0.683-2.184,2.461-1.501,3.972c0.683,1.512,2.461,2.184,3.973,1.501
			c0,0,0.02-0.009,0.058-0.026c0.103-0.045,0.299-0.136,0.521-0.261c0.322-0.192,0.672-0.439,1.04-0.768
			c0.357-0.327,0.754-0.728,1.099-1.189c0.383-0.464,0.692-0.986,1.032-1.559c0.304-0.57,0.622-1.19,0.869-1.84
			c0.292-0.653,0.479-1.333,0.716-2.039c0.205-0.704,0.37-1.426,0.549-2.16c0.131-0.729,0.264-1.469,0.396-2.209
			c0.091-0.734,0.183-1.469,0.273-2.192c0.054-0.718,0.106-1.424,0.158-2.107c0.055-0.72,0.075-1.4,0.089-2.05
			C353.48,64.636,353.287,64.683,353.084,64.695z"/>
		<path d="M344.526,77.461c0.014-0.009,0.026-0.014,0.04-0.021C344.522,77.466,344.497,77.478,344.526,77.461z"/>
	</g>
	<path d="M351.185,46.247c-5.344,0-9.676,4.332-9.676,9.675c0,5.343,4.332,9.675,9.676,9.675c5.344,0,9.676-4.332,9.676-9.675
		C360.861,50.579,356.529,46.247,351.185,46.247z M351.185,64.46c-4.72,0-8.542-3.822-8.542-8.54c0-4.715,3.822-8.537,8.542-8.537
		c4.72,0,8.542,3.822,8.542,8.537C359.727,60.638,355.905,64.46,351.185,64.46z"/>
	<path d="M351.185,48.369c-4.175,0-7.556,3.381-7.556,7.551c0,4.173,3.381,7.554,7.556,7.554c4.175,0,7.556-3.381,7.556-7.554
		C358.741,51.75,355.36,48.369,351.185,48.369z M351.185,59.143c-1.78,0-3.223-1.442-3.223-3.222c0-1.778,1.442-3.221,3.223-3.221
		c1.78,0,3.223,1.442,3.223,3.221C354.408,57.701,352.966,59.143,351.185,59.143z"/>
	<g>
		<path d="M388.495,77.438c1.934,0.127,4.189,0.286,6.621,0.496c1.218,0.105,2.479,0.224,3.781,0.37
			c0.652,0.073,1.315,0.155,2.002,0.253c0.704,0.106,1.364,0.198,2.288,0.424c0.248,0.066,0.486,0.122,0.935,0.297l0.163,0.067
			l0.244,0.116l0.249,0.134c0.147,0.087,0.29,0.184,0.427,0.288l0.207,0.166c0.136,0.121,0.267,0.253,0.388,0.395
			c0.122,0.141,0.233,0.292,0.333,0.446c0.042,0.065,0.097,0.148,0.189,0.333c0.078,0.158,0.147,0.326,0.205,0.499
			c0.115,0.347,0.18,0.716,0.192,1.063c-0.014-0.28-0.003-0.069-0.006-0.128l0.002,0.015l0.005,0.06
			c0.027,0.387,0.066,0.465,0.088,0.648c0.098,0.591,0.196,1.18,0.293,1.764c0.221,1.228,0.439,2.436,0.648,3.605
			c0.441,2.351,0.853,4.545,1.207,6.426c0.739,3.759,1.232,6.266,1.232,6.266l0.003,0.015c0.362,1.843-0.838,3.631-2.682,3.994
			c-1.821,0.358-3.589-0.813-3.982-2.619c0,0-0.542-2.507-1.355-6.268c-0.407-1.883-0.882-4.079-1.391-6.432
			c-0.247-1.187-0.502-2.412-0.761-3.658c-0.127-0.656-0.255-1.316-0.384-1.98c-0.076-0.446-0.156-0.997-0.182-1.248l-0.007-0.06
			l-0.012-0.172c0.008,0.328,0.065,0.678,0.176,1.005c0.055,0.164,0.121,0.322,0.196,0.47c0.091,0.174,0.139,0.25,0.174,0.308
			c0.087,0.139,0.185,0.274,0.294,0.4c0.108,0.126,0.226,0.244,0.349,0.349l0.158,0.132c0.104,0.081,0.214,0.155,0.328,0.219
			l0.142,0.081l0.188,0.087c0.15,0.058,0.078,0.031,0.017,0.022c-0.323-0.067-0.933-0.151-1.492-0.21
			c-0.597-0.054-1.19-0.108-1.78-0.162c-1.205-0.093-2.417-0.164-3.593-0.226c-2.355-0.121-14.801,0.813-14.801,0.813
			c-2.232-0.032-3.99-3.066-3.958-5.297c0.031-2.231,2.2-4.928,4.432-4.896C380.327,76.11,384.627,77.193,388.495,77.438z"/>
	</g>
	<path d="M376.14,85.045c-0.837-1.219-1.324-2.735-1.306-4.054c0.028-1.989,1.444-4.31,3.36-5.341
		c-3.469-0.691-16.396-3.131-24.386-2.761l-0.075,0.418l-0.115,0.484c-0.146,0.603-0.288,1.197-0.458,1.779l-0.187,0.577
		c-0.167,0.521-0.339,1.059-0.576,1.59c-0.24,0.637-0.576,1.294-0.9,1.902c-0.377,0.637-0.711,1.2-1.143,1.725
		c-0.303,0.407-0.703,0.841-1.195,1.292c-0.391,0.349-0.781,0.637-1.202,0.888c-0.281,0.158-0.509,0.264-0.628,0.317
		c-0.574,0.259-1.128,0.379-1.697,0.379c-1.246,0-2.398-0.589-3.147-1.544c0.606,2.092,2.337,3.608,4.399,3.608h30.393
		C376.865,85.963,376.482,85.545,376.14,85.045z"/>
	<g>
		<path d="M393.753,88.105h-64.839V51.237c0-1.513-1.189-2.737-2.682-2.819c-0.052-0.003-0.101-0.016-0.153-0.016
			c-1.565,0-2.835,1.269-2.835,2.834V90.94v0.329v13.175c0,1.565,1.27,2.834,2.835,2.834c0.053,0,0.102-0.013,0.153-0.016
			c1.493-0.082,2.682-1.306,2.682-2.819V93.774h62.004v10.669c0,1.565,1.27,2.834,2.835,2.834c1.565,0,2.835-1.269,2.835-2.834
			V91.269V90.94C396.588,89.374,395.318,88.105,393.753,88.105z"/>
	</g>
</g>
<g>
	<path d="M148.854,280.378h13.593c0.918,0,1.663-0.745,1.663-1.664c0-0.917-0.745-1.661-1.663-1.661h-13.593
		c-0.918,0-1.662,0.744-1.662,1.661C147.193,279.633,147.936,280.378,148.854,280.378z"/>
	<path d="M148.854,276.513h13.593c0.918,0,1.663-0.744,1.663-1.662s-0.745-1.663-1.663-1.663h-13.593
		c-0.918,0-1.662,0.745-1.662,1.663S147.936,276.513,148.854,276.513z"/>
	<path d="M148.854,272.647h13.593c0.918,0,1.663-0.744,1.663-1.662c0-0.918-0.745-1.663-1.663-1.663h-13.593
		c-0.918,0-1.662,0.745-1.662,1.663C147.193,271.903,147.936,272.647,148.854,272.647z"/>
	<path d="M148.854,268.782h13.593c0.918,0,1.663-0.744,1.663-1.662s-0.745-1.662-1.663-1.662h-13.593
		c-0.918,0-1.662,0.744-1.662,1.662S147.936,268.782,148.854,268.782z"/>
	<g>
		<rect x="155.153" y="245.587" width="0.997" height="36.228"/>
	</g>
	<path d="M175.757,285.769c-0.396,0-0.764-0.251-0.895-0.646l-0.783-2.364h-18.427c-0.521,0-0.943-0.423-0.943-0.943
		c0-0.521,0.422-0.943,0.943-0.943h19.108c0.407,0,0.768,0.261,0.895,0.647l0.997,3.011c0.164,0.495-0.104,1.028-0.599,1.192
		C175.955,285.753,175.855,285.769,175.757,285.769z M136.441,285.122l0.783-2.364h18.427c0.521,0,0.943-0.423,0.943-0.943
		c0-0.521-0.422-0.943-0.943-0.943h-19.108c-0.407,0-0.768,0.261-0.896,0.647l-0.997,3.011c-0.164,0.495,0.105,1.028,0.599,1.192
		c0.098,0.032,0.198,0.048,0.296,0.048C135.942,285.769,136.31,285.518,136.441,285.122z"/>
	<g>
		<g>
			<path d="M161.852,291.973c0,3.425-3.237,6.2-6.2,6.2c-2.963,0-6.203-2.775-6.203-6.2c0-3.425,2.778-6.201,6.203-6.201
				C159.076,285.772,161.852,288.548,161.852,291.973z"/>
		</g>
	</g>
	<g>
		<path d="M155.652,284.772c1.661,0,3.188,0.57,4.407,1.519v-2.533h-8.815v2.533C152.463,285.342,153.991,284.772,155.652,284.772z"
			/>
		<path d="M155.652,299.173c-1.514,0-3.106-0.613-4.409-1.655v3.845c0,2.435,1.973,4.407,4.408,4.407
			c2.434,0,4.408-1.973,4.408-4.407v-3.845C158.757,298.56,157.166,299.173,155.652,299.173z"/>
	</g>
	<g>
		<polygon points="143.476,291.891 143.476,291.892 143.477,291.893 		"/>
		<path d="M146.369,301.15c-0.092-0.898,0.181-1.745,0.766-2.394c0.12-0.133,0.259-0.245,0.4-0.354
			c-0.205-0.32-0.415-0.646-0.629-0.979c-0.813-1.31-1.679-2.706-2.545-4.105l-0.648-1.046l-0.16-0.26l-0.042-0.065l-0.019-0.032
			l-0.009-0.014l-0.005-0.009c-0.001-0.002,0.002,0.004,0.004,0.008l-0.001-0.002l-0.003-0.007l-0.021-0.038
			c-0.096-0.176-0.206-0.377-0.228-0.467c-0.082-0.184-0.208-0.55-0.321-0.878c-0.104-0.351-0.215-0.685-0.305-1.041
			c-0.394-1.397-0.659-2.774-0.867-3.954c-0.219-1.179-0.344-2.175-0.437-2.869c-0.093-0.695-0.123-1.086-0.123-1.086
			c-0.004-0.063-0.013-0.128-0.025-0.19c-0.185-1.013-1.155-1.684-2.167-1.498c-1.012,0.185-1.683,1.155-1.499,2.167l0.006,0.032
			c0,0,0.298,1.633,0.745,4.081c0.12,0.612,0.251,1.276,0.39,1.979c0.145,0.704,0.284,1.45,0.473,2.232
			c0.084,0.389,0.202,0.796,0.306,1.202c0.13,0.42,0.234,0.815,0.462,1.372c0.108,0.291,0.193,0.441,0.278,0.627l0.064,0.138
			l0.125,0.238l0.137,0.27l0.55,1.078c0.733,1.44,1.466,2.881,2.154,4.23c0.669,1.354,1.286,2.63,1.809,3.742
			c1.031,2.221,1.689,3.717,1.69,3.717c0.06,0.134,0.138,0.279,0.222,0.405c0.06,0.09,0.132,0.164,0.201,0.244L146.369,301.15z"/>
		<path d="M172.128,279.845c-1.025-0.08-1.922,0.688-2.001,1.714c0,0-0.03,0.391-0.123,1.086c-0.093,0.694-0.217,1.691-0.438,2.87
			c-0.208,1.179-0.471,2.556-0.865,3.953c-0.09,0.356-0.203,0.69-0.305,1.041c-0.113,0.328-0.24,0.694-0.321,0.878
			c-0.022,0.09-0.131,0.291-0.227,0.467l-0.026,0.047c0.003-0.005,0.008-0.015,0.006-0.011l-0.005,0.009l-0.01,0.016l-0.02,0.033
			l-0.04,0.065l-0.162,0.26l-0.647,1.046c-0.867,1.398-1.734,2.795-2.546,4.105c-0.214,0.333-0.424,0.659-0.628,0.978
			c0.141,0.11,0.281,0.224,0.401,0.356c0.585,0.648,0.857,1.495,0.766,2.384l-0.727,6.485c0.165-0.194,0.315-0.406,0.423-0.652
			c0.001,0,0.659-1.496,1.69-3.718c0.522-1.112,1.139-2.387,1.809-3.741c0.687-1.35,1.42-2.79,2.152-4.23l0.55-1.078l0.137-0.27
			l0.127-0.237l0.063-0.139c0.086-0.185,0.17-0.336,0.279-0.627c0.227-0.557,0.331-0.952,0.461-1.372
			c0.105-0.406,0.223-0.814,0.308-1.202c0.188-0.781,0.328-1.528,0.473-2.233c0.138-0.701,0.269-1.365,0.389-1.978
			c0.447-2.448,0.744-4.081,0.744-4.081l0.008-0.035c0.011-0.061,0.019-0.124,0.023-0.188
			C173.923,280.82,173.155,279.925,172.128,279.845z"/>
	</g>
	<g>
		<path d="M167.635,314.034h-23.968c-0.551,0-0.998,0.446-0.998,0.997c0,0.551,0.447,0.997,0.998,0.997h10.987v7.734h1.995v-7.734
			h10.986c0.551,0,0.997-0.446,0.997-0.997C168.632,314.48,168.186,314.034,167.635,314.034z"/>
	</g>
	<g>
		<path d="M170.941,332.021l-2.71-13.022c-0.104-0.497-0.377-0.965-0.809-1.305l-0.291-0.228l-0.559-0.439h-8.924v1.466l6.273,2.625
			l2.466,11.85c0.262,1.257,1.493,2.063,2.75,1.804C170.395,334.51,171.203,333.277,170.941,332.021z"/>
		<path d="M162.596,313.034l1.345-11.995c0.133-1.291-0.861-2.335-2.222-2.335h-2.416c-1.024,0.476-2.228,0.755-3.624,0.755
			c-1.395,0-2.599-0.279-3.624-0.755h-2.47c-1.36,0-2.355,1.044-2.223,2.335l1.345,11.995H162.596z"/>
		<path d="M153.654,317.028h-8.718l-0.559,0.439l-0.293,0.229c-0.399,0.315-0.695,0.766-0.807,1.303l-2.709,13.022
			c-0.262,1.259,0.547,2.489,1.804,2.752c1.257,0.26,2.488-0.547,2.75-1.804l2.465-11.849l6.066-2.539V317.028z"/>
	</g>
	<path d="M162.596,313.034l1.345-11.995c0.133-1.291-0.861-2.335-2.222-2.335h-2.416c-1.024,0.476-2.228,0.755-3.624,0.755
		c-1.395,0-2.599-0.279-3.624-0.755h-2.47c-1.36,0-2.355,1.044-2.223,2.335l1.345,11.995H162.596z"/>
	<path d="M169.137,334.772c-1.257,0.26-2.488-0.547-2.75-1.804l-2.466-11.85l-6.273-2.625v-1.466h8.924l0.559,0.439l0.291,0.228
		c0.432,0.34,0.705,0.808,0.809,1.305l2.71,13.022C171.203,333.277,170.395,334.51,169.137,334.772z M153.654,317.028h-8.718
		l-0.559,0.439l-0.293,0.229c-0.399,0.315-0.695,0.766-0.807,1.303l-2.709,13.022c-0.262,1.259,0.547,2.489,1.804,2.752
		c1.257,0.26,2.488-0.547,2.75-1.804l2.465-11.849l6.066-2.539V317.028z"/>
	<path d="M163.05,321.838l-6.401-2.678v-3.132h6.387c-0.668-0.976-1.638-1.603-2.731-1.603h-9.306c-1.094,0-2.063,0.628-2.731,1.603
		h6.387v3.218l-6.194,2.593l-0.095,0.458c0.665,0.896,1.593,1.466,2.634,1.466h9.306c1.056,0,2-0.584,2.666-1.503
		c0.046-0.064,0.081-0.139,0.124-0.206L163.05,321.838z"/>
	<g>
		<path d="M134.664,321.719c0,0.547-0.341,0.99-0.763,0.99h-7.785c-0.422,0-0.763-0.443-0.763-0.99l0,0
			c0-0.545,0.341-0.987,0.763-0.987h7.785C134.322,320.731,134.664,321.174,134.664,321.719L134.664,321.719z"/>
	</g>
	<g>
		<path d="M185.951,321.719c0,0.547-0.341,0.99-0.763,0.99h-7.786c-0.421,0-0.764-0.443-0.764-0.99l0,0
			c0-0.545,0.342-0.987,0.764-0.987h7.786C185.609,320.731,185.951,321.174,185.951,321.719L185.951,321.719z"/>
	</g>
	<g>
		<path d="M181.295,244.091L181.295,244.091h-51.287c-0.826,0-1.496,0.669-1.496,1.496v76.132h1.496h1.496v-74.637h48.295v74.637
			h1.496h1.497v-76.132C182.791,244.76,182.121,244.091,181.295,244.091z"/>
	</g>
	<g>
		<path d="M157.709,248.19c0,1.137-0.922,2.059-2.058,2.059l0,0c-1.137,0-2.058-0.922-2.058-2.059v-5.526
			c0-1.136,0.921-2.058,2.058-2.058l0,0c1.136,0,2.058,0.922,2.058,2.058V248.19z"/>
	</g>
</g>
<g>
	<g>
		<path d="M159.402,53.598c0.542-0.592,1.239-0.97,2.007-1.112c-1.207-0.608-2.578-1.313-4.025-2.095
			c-1.55-0.836-3.164-1.797-4.674-2.796c-0.727-0.5-1.489-1.032-2.006-1.512l-0.197-0.176l-0.05-0.044l-0.014-0.012l-0.047-0.061
			l-0.213-0.277c-0.068-0.091-0.064-0.119-0.102-0.179c-0.099-0.146-0.311-0.573-0.468-0.904c-0.661-1.464-1.158-3.029-1.509-4.372
			c-0.374-1.343-0.617-2.492-0.776-3.293c-0.083-0.4-0.14-0.716-0.174-0.93c-0.034-0.208-0.052-0.319-0.052-0.319l-0.004-0.025
			c-0.009-0.057-0.021-0.114-0.036-0.171c-0.283-1.116-1.417-1.791-2.533-1.508c-1.116,0.283-1.791,1.417-1.508,2.533
			c0,0,0.122,0.481,0.336,1.325c0.22,0.831,0.534,2.019,0.911,3.444c0.196,0.714,0.432,1.484,0.687,2.308
			c0.254,0.827,0.539,1.7,0.917,2.627c0.216,0.484,0.369,0.898,0.752,1.542c0.081,0.137,0.185,0.32,0.253,0.417l0.203,0.285
			l0.102,0.143l0.013,0.018l0.113,0.139l0.037,0.041l0.075,0.081l0.301,0.323c0.811,0.862,1.595,1.476,2.398,2.125
			c0.799,0.617,1.604,1.205,2.399,1.767c0.797,0.546,1.582,1.084,2.341,1.604c1.253,0.852,2.438,1.627,3.509,2.315
			C158.256,55.618,158.634,54.436,159.402,53.598z"/>
		<path d="M194.331,33.775c-1.136-0.186-2.208,0.583-2.395,1.719l-0.003,0.021c0,0-0.019,0.111-0.053,0.319
			c-0.035,0.214-0.091,0.529-0.174,0.93c-0.16,0.802-0.402,1.95-0.776,3.293c-0.351,1.342-0.849,2.908-1.509,4.372
			c-0.157,0.331-0.369,0.758-0.468,0.904c-0.039,0.061-0.034,0.089-0.103,0.18l-0.213,0.277l-0.047,0.061l-0.013,0.012l-0.05,0.044
			l-0.197,0.176c-0.518,0.48-1.279,1.013-2.007,1.512c-1.51,0.999-3.124,1.96-4.674,2.796c-1.447,0.781-2.818,1.486-4.025,2.094
			c0.768,0.142,1.466,0.52,2.008,1.112c0.767,0.838,1.146,2.02,1.038,3.244l0,0.007c1.07-0.688,2.255-1.462,3.507-2.313
			c0.759-0.52,1.544-1.058,2.341-1.604c0.795-0.562,1.6-1.149,2.399-1.767c0.803-0.649,1.587-1.263,2.398-2.125l0.301-0.324
			l0.075-0.081l0.037-0.041l0.114-0.14l0.013-0.018l0.102-0.143l0.203-0.285c0.069-0.097,0.172-0.28,0.254-0.417
			c0.383-0.644,0.536-1.057,0.752-1.542c0.378-0.927,0.663-1.799,0.917-2.627c0.254-0.824,0.491-1.594,0.687-2.308
			c0.377-1.425,0.691-2.613,0.911-3.444c0.214-0.843,0.336-1.325,0.336-1.325c0.014-0.056,0.027-0.117,0.037-0.175
			C196.236,35.034,195.466,33.961,194.331,33.775z"/>
	</g>
	<g>
		<path d="M142.049,36.591c-0.075-0.296-0.091-0.596-0.079-0.893h-0.723v-4.987h-2.896h-2.895v4.987h-1.165
			c-0.356,0-0.643,0.288-0.643,0.644s0.288,0.643,0.643,0.643h1.165v4.987h2.895h2.896v-4.987h0.902L142.049,36.591z"/>
		<path d="M148.143,35.698c0.033,0.206,0.085,0.494,0.162,0.863c0.025,0.125,0.057,0.277,0.086,0.424h42.249
			c0.029-0.144,0.061-0.293,0.085-0.416c0.079-0.378,0.131-0.667,0.164-0.871H148.143z"/>
		<path d="M204.742,35.698h-0.965v-4.987h-2.896h-2.895v4.987h-0.912c0.009,0.208-0.002,0.42-0.037,0.633
			c-0.013,0.083-0.033,0.176-0.054,0.26l-0.1,0.394h1.103v4.987h2.895h2.896v-4.987h0.965c0.355,0,0.643-0.288,0.643-0.643
			S205.097,35.698,204.742,35.698z"/>
	</g>
	<g>
		<path d="M182.037,102.282c-0.001-0.182-0.021-0.38-0.063-0.564l-0.045-0.199l-4.112-18.115l0.091-1.111h-16.455l0.003,0.041
			l-4.354,19.185l-0.049,0.212c-0.039,0.177-0.059,0.361-0.059,0.55l-0.017,15.411c-0.002,1.521,1.23,2.754,2.749,2.755
			c1.52,0.002,2.753-1.229,2.755-2.749l0.016-14.954l-0.108,0.305l0.108-0.763v0.457l4.756-13.42h2.426h2.097l4.757,13.42
			l-0.001-0.457l0.108,0.763l-0.108-0.305l0.014,14.954c0.001,1.52,1.235,2.752,2.755,2.749c1.52-0.001,2.752-1.235,2.75-2.755
			L182.037,102.282z"/>
	</g>
	<path d="M160.597,68.591l0.903,12.701h16.034l0.88-12.395c0.031-0.012,0.063-0.021,0.094-0.031l1.165-12.114
		c0.162-1.844-1.055-3.337-2.724-3.337h-4.349c-0.967,0.355-2.054,0.562-3.274,0.562c-1.221,0-2.308-0.207-3.274-0.562h-3.97
		c-1.667,0-2.886,1.493-2.723,3.337l1.135,11.792C160.527,68.561,160.563,68.576,160.597,68.591z"/>
	<g>
		<path d="M169.517,39.807c-3.46,0-6.264,2.804-6.264,6.263c0,3.46,3.27,6.264,6.264,6.264c2.993,0,6.264-2.804,6.264-6.264
			C175.78,42.611,172.977,39.807,169.517,39.807z"/>
	</g>
</g>
<g>
	<g>
		<polygon points="102.149,139.489 100.117,139.489 100.117,222.406 102.149,222.406 104.181,222.406 104.181,139.489 		"/>
	</g>
	<g>
		<polygon points="35.725,139.489 33.693,139.489 33.693,222.406 35.725,222.406 37.757,222.406 37.757,139.489 		"/>
	</g>
	<g>
		<path d="M106.974,222c0,0.565-0.354,1.024-0.791,1.024h-8.067c-0.437,0-0.791-0.459-0.791-1.024l0,0
			c0-0.565,0.354-1.024,0.791-1.024h8.067C106.62,220.976,106.974,221.435,106.974,222L106.974,222z"/>
	</g>
	<g>
		<path d="M40.55,222c0,0.565-0.354,1.024-0.791,1.024h-8.067c-0.437,0-0.791-0.459-0.791-1.024l0,0
			c0-0.565,0.354-1.024,0.791-1.024h8.067C40.196,220.976,40.55,221.435,40.55,222L40.55,222z"/>
	</g>
	<g>
		<path d="M58.019,162.689c-0.102-1.159,0.254-2.271,0.978-3.062c0.573-0.625,1.333-0.989,2.161-1.078
			c-1.145-0.579-2.477-1.242-3.866-1.995c-0.73-0.371-1.442-0.796-2.164-1.229c-0.363-0.215-0.729-0.432-1.096-0.649L53,153.993
			c-0.336-0.229-0.709-0.459-1.015-0.687c-0.272-0.224-0.543-0.448-0.812-0.67l-0.207-0.164l-0.052-0.041l-0.018-0.014l-0.034-0.044
			l-0.197-0.255c-0.063-0.083-0.055-0.104-0.089-0.156c-0.081-0.115-0.278-0.511-0.421-0.811c-0.607-1.337-1.068-2.779-1.39-4.015
			c-0.345-1.237-0.566-2.295-0.712-3.035c-0.076-0.369-0.126-0.66-0.158-0.857c-0.031-0.191-0.047-0.293-0.047-0.293l-0.005-0.034
			c-0.011-0.066-0.025-0.132-0.042-0.198c-0.293-1.114-1.433-1.779-2.547-1.486c-1.114,0.294-1.779,1.434-1.486,2.547
			c0,0,0.464,1.765,1.161,4.412c0.181,0.661,0.401,1.373,0.636,2.137c0.235,0.767,0.497,1.576,0.848,2.44
			c0.202,0.454,0.34,0.835,0.705,1.448c0.077,0.13,0.176,0.304,0.24,0.395l0.187,0.263l0.094,0.132l0.012,0.017l0.112,0.138
			l0.034,0.034l0.068,0.069l0.275,0.276c0.374,0.366,0.75,0.734,1.128,1.104c0.375,0.329,0.739,0.594,1.111,0.895l1.112,0.872
			c0.372,0.263,0.742,0.524,1.109,0.784c0.733,0.526,1.462,1.028,2.161,1.5c1.17,0.813,2.28,1.536,3.277,2.186L58.019,162.689z"/>
		<path d="M91.329,141.191c-1.137-0.182-2.207,0.592-2.389,1.729l-0.005,0.031c0,0-0.017,0.103-0.047,0.294
			c-0.031,0.197-0.082,0.488-0.158,0.857c-0.145,0.739-0.367,1.798-0.712,3.035c-0.322,1.236-0.783,2.678-1.39,4.016
			c-0.143,0.3-0.341,0.695-0.421,0.811c-0.034,0.053-0.026,0.073-0.089,0.156l-0.198,0.255l-0.034,0.044l-0.018,0.014l-0.052,0.041
			l-0.206,0.164c-0.269,0.222-0.54,0.446-0.813,0.67c-0.306,0.228-0.679,0.457-1.015,0.686l-1.033,0.685
			c-0.367,0.218-0.733,0.434-1.096,0.649c-0.721,0.432-1.434,0.857-2.164,1.228c-1.389,0.753-2.721,1.416-3.866,1.995
			c0.829,0.088,1.589,0.451,2.163,1.077c0.723,0.789,1.08,1.902,0.979,3.054l-0.019,0.199c0.997-0.649,2.105-1.372,3.274-2.183
			c0.699-0.472,1.428-0.975,2.162-1.5c0.367-0.26,0.737-0.521,1.109-0.785l1.112-0.871c0.372-0.301,0.736-0.566,1.111-0.895
			c0.378-0.37,0.755-0.739,1.128-1.104l0.274-0.276l0.068-0.069l0.034-0.035l0.112-0.138l0.012-0.017l0.094-0.132l0.187-0.263
			c0.063-0.09,0.163-0.265,0.239-0.395c0.365-0.614,0.503-0.995,0.706-1.448c0.351-0.864,0.613-1.673,0.848-2.44
			c0.235-0.764,0.454-1.477,0.636-2.137c0.697-2.647,1.161-4.412,1.161-4.412c0.017-0.065,0.032-0.134,0.042-0.201
			C93.24,142.442,92.466,141.373,91.329,141.191z"/>
	</g>
	<g>
		<path d="M48.928,143.347c0.028,0.157,0.061,0.334,0.105,0.552c0.058,0.295,0.135,0.665,0.225,1.074h38.268
			c0.09-0.408,0.166-0.774,0.223-1.064c0.047-0.225,0.08-0.404,0.108-0.562H48.928z"/>
		<path d="M42.801,144.035c-0.061-0.23-0.087-0.46-0.094-0.688H28.753c-0.449,0-0.813,0.364-0.813,0.813
			c0,0.449,0.364,0.813,0.813,0.813h14.295L42.801,144.035z"/>
		<path d="M108.031,143.347H94.068c-0.004,0.13-0.002,0.259-0.023,0.391c-0.016,0.099-0.038,0.201-0.063,0.297l-0.247,0.938h14.295
			c0.449,0,0.813-0.364,0.813-0.813C108.844,143.711,108.48,143.347,108.031,143.347z"/>
	</g>
	<g>
		<path d="M79.954,204.634c0-0.169-0.02-0.351-0.059-0.521l-0.041-0.184l-3.797-16.727l0.084-1.026H60.947l0.004,0.038
			l-4.021,17.715l-0.045,0.196c-0.036,0.163-0.055,0.333-0.055,0.508l-0.015,14.23c-0.002,1.404,1.136,2.543,2.538,2.544
			c1.404,0.002,2.543-1.135,2.544-2.539l0.015-13.808l-0.101,0.282l0.101-0.704v0.422l4.392-12.392h2.239h1.937l4.393,12.392
			l-0.001-0.422l0.101,0.704l-0.1-0.282l0.013,13.808c0.001,1.404,1.14,2.541,2.544,2.539c1.403-0.002,2.54-1.14,2.538-2.544
			L79.954,204.634z"/>
	</g>
	<path d="M60.156,173.524l0.829,11.651h14.816l0.808-11.368c0.029-0.011,0.058-0.019,0.087-0.029l1.076-11.185
		c0.149-1.703-0.975-3.082-2.516-3.082H71.24c-0.892,0.328-1.895,0.519-3.023,0.519c-1.127,0-2.131-0.191-3.022-0.519h-3.665
		c-1.54,0-2.665,1.378-2.515,3.082l1.048,10.888C60.093,173.497,60.126,173.51,60.156,173.524z"/>
	<g>
		<path d="M68.393,146.946c-3.194,0-5.783,2.589-5.783,5.783c0,3.195,3.019,5.784,5.783,5.784c2.765,0,5.784-2.589,5.784-5.784
			C74.177,149.535,71.588,146.946,68.393,146.946z"/>
	</g>
</g>
<g>
	<g>
		<path d="M65.097,39.807c-3.46,0-6.264,2.804-6.264,6.263c0,3.46,3.271,6.264,6.264,6.264c2.993,0,6.264-2.804,6.264-6.264
			C71.36,42.611,68.557,39.807,65.097,39.807z"/>
	</g>
	<g>
		<path d="M53.945,56.867c-0.108-1.231,0.27-2.413,1.038-3.251c0.117-0.128,0.25-0.231,0.381-0.339
			c-1.236-0.498-2.599-1.056-4.027-1.669c-1.813-0.779-3.717-1.678-5.549-2.62c-0.906-0.473-1.818-0.965-2.594-1.471
			c-0.187-0.126-0.415-0.251-0.565-0.377l-0.46-0.366l-0.044-0.034l-0.097-0.107l-0.256-0.283c-0.065-0.117-0.137-0.225-0.219-0.328
			c-0.43-0.685-0.814-1.503-1.155-2.282c-0.33-0.796-0.604-1.579-0.847-2.312c-0.497-1.462-0.825-2.726-1.041-3.608
			c-0.111-0.441-0.188-0.788-0.237-1.024c-0.047-0.229-0.072-0.351-0.072-0.351l-0.007-0.036c-0.011-0.053-0.024-0.105-0.04-0.157
			c-0.322-1.105-1.479-1.74-2.584-1.418c-1.105,0.322-1.74,1.479-1.418,2.584c0,0,0.156,0.534,0.428,1.469
			c0.275,0.922,0.675,2.23,1.198,3.807c0.26,0.788,0.582,1.638,0.935,2.546c0.366,0.914,0.763,1.874,1.362,2.911
			c0.199,0.311,0.41,0.622,0.63,0.926l0.248,0.293l0.124,0.147l0.031,0.037l0.016,0.018l0.129,0.134l0.09,0.079l0.732,0.633
			c0.249,0.209,0.471,0.356,0.71,0.539c0.944,0.706,1.883,1.29,2.833,1.872c1.894,1.152,3.813,2.172,5.602,3.146
			c1.777,0.964,3.447,1.823,4.885,2.557L53.945,56.867z"/>
		<path d="M94.465,34.792c-1.127-0.233-2.23,0.492-2.463,1.619l-0.007,0.032c0,0-0.025,0.122-0.072,0.351
			c-0.049,0.236-0.126,0.583-0.238,1.024c-0.216,0.882-0.544,2.146-1.041,3.608c-0.243,0.734-0.518,1.516-0.848,2.313
			c-0.341,0.779-0.725,1.598-1.155,2.283c-0.082,0.104-0.154,0.211-0.219,0.329l-0.256,0.283l-0.098,0.108l-0.042,0.033l-0.46,0.365
			c-0.15,0.126-0.379,0.251-0.565,0.377c-0.776,0.506-1.688,0.998-2.595,1.471c-1.832,0.942-3.735,1.84-5.549,2.62
			c-1.428,0.613-2.791,1.171-4.027,1.669c0.13,0.108,0.264,0.211,0.381,0.339c0.767,0.838,1.146,2.021,1.038,3.244l-0.161,1.673
			c1.439-0.734,3.109-1.593,4.885-2.557c1.789-0.974,3.708-1.994,5.602-3.146c0.951-0.582,1.89-1.166,2.834-1.872
			c0.239-0.183,0.461-0.33,0.71-0.539l0.732-0.633l0.09-0.079l0.129-0.134l0.016-0.019l0.031-0.037l0.124-0.147l0.248-0.293
			c0.22-0.305,0.431-0.615,0.63-0.927c0.6-1.036,0.996-1.997,1.362-2.911c0.353-0.908,0.675-1.757,0.935-2.546
			c0.522-1.577,0.923-2.885,1.199-3.807c0.272-0.935,0.428-1.469,0.428-1.469c0.015-0.052,0.029-0.108,0.04-0.162
			C96.317,36.128,95.592,35.025,94.465,34.792z"/>
	</g>
	<g>
		<path d="M85.104,38.733h0.249v1.553c0,0.409,0.332,0.741,0.741,0.741c0.409,0,0.741-0.333,0.741-0.741v-1.553h0.508v2.82
			c0,0.618,0.502,1.12,1.12,1.12c0.323,0,0.608-0.141,0.813-0.359c0.116-0.317,0.219-0.611,0.308-0.871v-2.71h0.831
			c0.118-0.435,0.221-0.835,0.298-1.153c0.071-0.282,0.123-0.505,0.167-0.701h-1.296v-2.819c0-0.619-0.502-1.12-1.121-1.12
			c-0.618,0-1.12,0.501-1.12,1.12v2.819h-0.508v-1.553c0-0.409-0.332-0.74-0.741-0.74c-0.409,0-0.741,0.331-0.741,0.74v1.553h-0.249
			c-0.512,0-0.926,0.415-0.926,0.927C84.178,38.318,84.593,38.733,85.104,38.733z"/>
		<path d="M39.479,37.575c0.079,0.32,0.182,0.721,0.3,1.158h1.141v2.82c0,0.618,0.502,1.12,1.12,1.12
			c0.619,0,1.119-0.502,1.119-1.12v-2.82h0.448v1.553c0,0.409,0.333,0.741,0.742,0.741c0.409,0,0.741-0.333,0.741-0.741v-1.553
			c0.512,0,0.926-0.415,0.926-0.927c0-0.512-0.414-0.927-0.926-0.927v-1.553c0-0.409-0.333-0.74-0.741-0.74
			c-0.409,0-0.742,0.331-0.742,0.74v1.553h-0.448v-2.819c0-0.619-0.5-1.12-1.119-1.12c-0.618,0-1.12,0.501-1.12,1.12v2.819h-1.605
			C39.357,37.075,39.409,37.297,39.479,37.575z"/>
		<path d="M103.172,36.88v-1.553c0-0.409-0.331-0.74-0.742-0.74c-0.409,0-0.74,0.331-0.74,0.74v1.553h-0.449v-2.819
			c0-0.619-0.5-1.12-1.12-1.12c-0.617,0-1.119,0.501-1.119,1.12v2.819h-1.88c-0.003,0.191-0.02,0.384-0.06,0.578
			c-0.017,0.079-0.037,0.159-0.057,0.232l-0.305,1.044h2.302v2.82c0,0.618,0.502,1.12,1.119,1.12c0.619,0,1.12-0.502,1.12-1.12
			v-2.82h0.449v1.553c0,0.409,0.331,0.741,0.74,0.741c0.411,0,0.742-0.333,0.742-0.741v-1.553c0.512,0,0.927-0.415,0.927-0.927
			C104.099,37.295,103.684,36.88,103.172,36.88z"/>
		<path d="M33.19,37.696c-0.079-0.27-0.106-0.543-0.11-0.816h-1.579v-2.819c0-0.619-0.502-1.12-1.12-1.12
			c-0.62,0-1.12,0.501-1.12,1.12v2.819h-0.509v-1.553c0-0.409-0.331-0.74-0.74-0.74c-0.41,0-0.741,0.331-0.741,0.74v1.553h-0.249
			c-0.512,0-0.927,0.415-0.927,0.927c0,0.512,0.415,0.927,0.927,0.927h0.249v1.553c0,0.409,0.331,0.741,0.741,0.741
			c0.409,0,0.74-0.333,0.74-0.741v-1.553h0.509v2.82c0,0.618,0.5,1.12,1.12,1.12c0.618,0,1.12-0.502,1.12-1.12v-2.82h1.992
			L33.19,37.696z"/>
	</g>
	<g>
		<path d="M77.618,101.782c-0.001-0.182-0.021-0.38-0.063-0.564l-0.045-0.199l-4.112-18.115l0.091-1.111H57.035l0.003,0.041
			l-4.354,19.185l-0.049,0.212c-0.039,0.177-0.059,0.361-0.059,0.55l-0.017,15.411c-0.002,1.521,1.23,2.754,2.75,2.755
			c1.52,0.002,2.753-1.229,2.755-2.749l0.016-14.954l-0.108,0.305l0.108-0.763v0.457l4.756-13.42h2.426h2.097l4.757,13.42l0-0.457
			l0.108,0.763l-0.108-0.305l0.014,14.954c0.002,1.52,1.235,2.752,2.755,2.749c1.52-0.001,2.752-1.235,2.75-2.755L77.618,101.782z"
			/>
	</g>
	<path d="M56.177,68.61l0.866,12.183H73.15l0.844-11.876c0.032-0.012,0.063-0.02,0.094-0.031l1.165-12.114
		c0.163-1.844-1.054-3.337-2.723-3.337h-4.349c-0.966,0.355-2.053,0.562-3.274,0.562c-1.221,0-2.308-0.207-3.274-0.562h-3.969
		c-1.667,0-2.886,1.493-2.723,3.337l1.135,11.792C56.108,68.58,56.144,68.595,56.177,68.61z"/>
</g>
<g>
	<g>
		<path d="M269.208,41.417c-3.46,0-6.264,2.804-6.264,6.263c0,3.46,3.27,6.264,6.264,6.264c2.993,0,6.264-2.804,6.264-6.264
			C275.472,44.222,272.668,41.417,269.208,41.417z"/>
	</g>
	<g>
		<path d="M264.396,60.7c1.148-0.965,1.298-2.68,0.333-3.829c0,0-0.457-0.545-1.217-1.47h-0.433c-1.374,0-2.38,1.347-2.246,3.006
			l0.212,2.397C262.032,61.529,263.417,61.523,264.396,60.7z"/>
	</g>
	<g>
		<path d="M275.335,55.401h-0.426c-0.752,0.911-1.207,1.448-1.206,1.449c-0.09,0.107-0.184,0.234-0.258,0.358
			c-0.771,1.286-0.353,2.955,0.934,3.727c0.961,0.578,2.138,0.489,2.991-0.13l0.212-2.397
			C277.717,56.749,276.71,55.401,275.335,55.401z"/>
	</g>
	<g>
		<path d="M269.305,74.124c-0.031-0.032-0.064-0.063-0.097-0.095v0.21C269.241,74.201,269.27,74.161,269.305,74.124z"/>
	</g>
	<g>
		<path d="M258.155,58.119c-0.109-1.23,0.268-2.412,1.035-3.25c0.068-0.074,0.148-0.129,0.222-0.197
			c-0.963-0.812-2.011-1.712-3.099-2.671c-0.738-0.642-1.475-1.334-2.212-2.035c-0.737-0.701-1.479-1.422-2.172-2.15
			c-0.703-0.719-1.367-1.485-1.855-2.132c-0.319-0.466-0.499-0.791-0.734-1.192c-0.235-0.421-0.467-0.841-0.688-1.27
			c-0.901-1.698-1.666-3.372-2.287-4.812c-0.64-1.436-1.123-2.658-1.459-3.512c-0.341-0.853-0.51-1.343-0.51-1.343
			c-0.02-0.056-0.043-0.116-0.067-0.171c-0.47-1.051-1.702-1.523-2.754-1.054c-1.052,0.469-1.523,1.702-1.054,2.754l0.02,0.043
			c0,0,0.873,1.956,2.183,4.889c0.667,1.464,1.416,3.176,2.295,5.029c0.219,0.462,0.458,0.935,0.707,1.414
			c0.259,0.492,0.584,1.071,0.839,1.476c0.688,1.074,1.373,1.947,2.091,2.798c0.711,0.859,1.438,1.666,2.16,2.454
			c0.727,0.776,1.441,1.541,2.133,2.28c1.383,1.472,2.691,2.816,3.824,3.958c0.622,0.633,1.18,1.2,1.672,1.701L258.155,58.119z"/>
		<path d="M296.865,32.261c-1.089-0.375-2.275,0.205-2.649,1.293c0,0-0.169,0.49-0.51,1.343c-0.336,0.854-0.818,2.077-1.458,3.512
			c-0.621,1.441-1.385,3.114-2.286,4.812c-0.221,0.429-0.452,0.849-0.688,1.27c-0.235,0.401-0.415,0.726-0.735,1.192
			c-0.488,0.648-1.151,1.414-1.855,2.133c-0.691,0.729-1.434,1.449-2.172,2.15c-0.736,0.7-1.473,1.393-2.211,2.035
			c-1.088,0.959-2.137,1.859-3.1,2.671c0.072,0.067,0.152,0.122,0.22,0.195c0.768,0.838,1.146,2.02,1.038,3.244l-0.29,3.016
			c0.492-0.501,1.05-1.069,1.673-1.702c1.133-1.141,2.441-2.485,3.824-3.958c0.691-0.74,1.406-1.504,2.133-2.28
			c0.723-0.788,1.449-1.595,2.16-2.454c0.717-0.851,1.403-1.726,2.091-2.798c0.255-0.405,0.579-0.984,0.839-1.476
			c0.248-0.48,0.488-0.953,0.707-1.415c0.879-1.853,1.628-3.565,2.294-5.03c1.31-2.934,2.182-4.89,2.182-4.89l0.022-0.047
			c0.024-0.055,0.046-0.11,0.065-0.168C298.533,33.822,297.954,32.635,296.865,32.261z"/>
	</g>
	<g>
		<path d="M281.826,103.552c0-0.182-0.021-0.38-0.063-0.564l-0.045-0.199l-4.111-18.115l0.091-1.111h-16.455l0.003,0.041
			l-4.353,19.186l-0.049,0.212c-0.039,0.177-0.059,0.361-0.059,0.55l-0.017,15.411c-0.002,1.521,1.229,2.754,2.749,2.755
			c1.52,0.002,2.754-1.229,2.756-2.75l0.016-14.954l-0.109,0.305l0.109-0.763v0.457l4.756-13.42h2.426h2.096l4.758,13.42
			l-0.001-0.457l0.108,0.763l-0.107-0.305l0.014,14.954c0.001,1.52,1.234,2.752,2.754,2.75c1.521-0.002,2.752-1.235,2.75-2.755
			L281.826,103.552z"/>
	</g>
	<path d="M260.387,69.862l0.902,12.701h16.034l0.88-12.395c0.031-0.012,0.063-0.021,0.094-0.031l1.166-12.114
		c0.162-1.844-1.055-3.337-2.725-3.337h-4.348c-0.967,0.355-2.055,0.562-3.275,0.562s-2.307-0.207-3.273-0.562h-3.969
		c-1.668,0-2.887,1.493-2.723,3.337l1.135,11.792C260.316,69.831,260.353,69.847,260.387,69.862z"/>
</g>
<g>
	<g>
		<path d="M170.991,143.169c-3.46,0-6.264,2.804-6.264,6.263c0,3.46,3.271,6.264,6.264,6.264s6.264-2.804,6.264-6.264
			C177.255,145.973,174.451,143.169,170.991,143.169z"/>
	</g>
	<path d="M159.594,157.038h-0.246v-1.536c0-0.405-0.329-0.732-0.733-0.732c-0.405,0-0.733,0.328-0.733,0.732v1.536h-0.502v-2.789
		c0-0.612-0.497-1.107-1.108-1.107c-0.613,0-1.107,0.495-1.107,1.107v2.789h-9.318v-2.789c0-0.612-0.497-1.107-1.107-1.107
		c-0.612,0-1.107,0.495-1.107,1.107v2.789h-0.444v-1.536c0-0.405-0.327-0.732-0.732-0.732c-0.407,0-0.734,0.328-0.734,0.732v1.536
		c-0.506,0-0.917,0.41-0.917,0.917s0.41,0.917,0.917,0.917v1.536c0,0.405,0.327,0.733,0.734,0.733c0.405,0,0.732-0.329,0.732-0.733
		v-1.536h0.444v2.79c0,0.611,0.495,1.108,1.107,1.108c0.611,0,1.107-0.497,1.107-1.108v-2.79h9.318v2.79
		c0,0.611,0.495,1.108,1.107,1.108c0.611,0,1.108-0.497,1.108-1.108v-2.79h0.502v1.536c0,0.405,0.328,0.733,0.733,0.733
		c0.405,0,0.733-0.329,0.733-0.733v-1.536h0.246c0.506,0,0.917-0.41,0.917-0.917S160.1,157.038,159.594,157.038z"/>
	<path d="M203.092,150.622h-0.246v-1.536c0-0.405-0.329-0.732-0.733-0.732c-0.405,0-0.733,0.327-0.733,0.732v1.536h-0.502v-2.789
		c0-0.612-0.497-1.107-1.108-1.107c-0.611,0-1.107,0.496-1.107,1.107v2.789h-9.318v-2.789c0-0.612-0.496-1.107-1.107-1.107
		c-0.612,0-1.107,0.496-1.107,1.107v2.789h-0.444v-1.536c0-0.405-0.328-0.732-0.732-0.732c-0.406,0-0.734,0.327-0.734,0.732v1.536
		c-0.506,0-0.917,0.41-0.917,0.917c0,0.506,0.41,0.916,0.917,0.916v1.536c0,0.404,0.328,0.733,0.734,0.733
		c0.404,0,0.732-0.329,0.732-0.733v-1.536h0.444v2.79c0,0.612,0.495,1.108,1.107,1.108c0.611,0,1.107-0.496,1.107-1.108v-2.79h9.318
		v2.79c0,0.612,0.496,1.108,1.107,1.108c0.611,0,1.108-0.496,1.108-1.108v-2.79h0.502v1.536c0,0.404,0.329,0.733,0.733,0.733
		c0.404,0,0.733-0.329,0.733-0.733v-1.536h0.246c0.506,0,0.917-0.41,0.917-0.916C204.008,151.032,203.598,150.622,203.092,150.622z"
		/>
	<g>
		<path style="fill:#27BEC5;" d="M156.034,169.146c0.143-0.011,0.363,0.036,0.479,0.104c0.023,0.013,0.027,0.02,0.043,0.03
			l-0.015-0.018c-0.095-0.105-0.108-0.137-0.129-0.165c-0.055-0.075-0.134-0.194-0.216-0.331c-0.168,0.211-0.338,0.367-0.357,0.394
			C155.828,169.182,155.888,169.153,156.034,169.146z"/>
	</g>
	<g>
		<path d="M194.531,148.738c-1.179-0.196-2.293,0.601-2.489,1.779l-0.003,0.022c0,0-0.016,0.097-0.046,0.277
			c-0.034,0.188-0.085,0.463-0.149,0.813c-0.146,0.699-0.335,1.708-0.644,2.892c-0.309,1.183-0.666,2.566-1.157,3.979
			c-0.247,0.704-0.508,1.422-0.818,2.095c-0.151,0.341-0.314,0.66-0.477,0.961c-0.083,0.142-0.166,0.29-0.248,0.409
			c-0.118,0.179-0.068,0.105-0.205,0.282c-0.184,0.212-0.232,0.184-0.333,0.229c-0.077,0.032-0.185,0.027-0.337,0.027
			c-0.306-0.005-0.824-0.13-1.354-0.362c-1.079-0.455-2.142-1.258-3.007-1.956c-0.451-0.367-0.846-0.729-1.188-1.06
			c0.066,0.381,0.101,0.771,0.066,1.172l-0.498,5.174c0.885,0.452,1.88,0.893,3.065,1.255c0.947,0.272,2.05,0.508,3.39,0.336
			c0.661-0.095,1.38-0.296,2.021-0.694c0.325-0.179,0.614-0.423,0.883-0.662l0.369-0.386l0.148-0.167l0.047-0.063l0.094-0.126
			c0.117-0.154,0.407-0.572,0.501-0.753c0.141-0.234,0.253-0.456,0.369-0.68c0.215-0.44,0.407-0.872,0.571-1.292
			c0.331-0.843,0.62-1.65,0.868-2.433c0.495-1.564,0.914-3.004,1.234-4.249c0.322-1.241,0.59-2.276,0.777-3
			c0.186-0.736,0.292-1.157,0.292-1.157c0.014-0.055,0.027-0.116,0.037-0.174C196.506,150.048,195.71,148.934,194.531,148.738z"/>
		<path d="M159.839,160.305c-0.011-0.127,0.004-0.25,0.003-0.376c-0.004,0.015-0.006,0.025-0.01,0.039
			c-0.199,0.726-0.48,1.777-0.895,2.998c-0.421,1.212-0.941,2.628-1.613,3.979c-0.34,0.662-0.731,1.319-1.102,1.789
			c-0.009,0.012-0.019,0.021-0.027,0.033c0.083,0.136,0.161,0.255,0.216,0.331c0.021,0.028,0.034,0.06,0.129,0.165l0.015,0.018
			c0.068,0.046,0.093,0.078,0.074,0.07l-0.011-0.005l-0.006-0.002l-0.001,0c-0.007-0.008,0.027,0.033,0.049,0.059l-0.01-0.012
			l-0.095-0.11c-0.016-0.011-0.02-0.018-0.043-0.03c-0.116-0.068-0.336-0.115-0.479-0.104c-0.146,0.006-0.206,0.036-0.195,0.016
			c0.019-0.027,0.189-0.183,0.357-0.394c-0.096-0.157-0.198-0.337-0.284-0.509c-0.349-0.671-0.659-1.43-0.931-2.177
			c-0.557-1.498-0.952-2.989-1.289-4.262c-0.341-1.275-0.546-2.362-0.705-3.116c-0.07-0.377-0.124-0.674-0.162-0.876
			c-0.033-0.196-0.05-0.301-0.05-0.301l-0.004-0.026c-0.009-0.056-0.021-0.112-0.036-0.168c-0.291-1.159-1.467-1.862-2.625-1.571
			c-1.159,0.292-1.862,1.467-1.571,2.626c0,0,0.114,0.453,0.314,1.246c0.203,0.781,0.492,1.897,0.839,3.236
			c0.355,1.341,0.809,2.894,1.367,4.588c0.293,0.847,0.603,1.724,1.026,2.652c0.221,0.479,0.434,0.909,0.817,1.493
			c0.105,0.157,0.217,0.313,0.269,0.379l0.101,0.135l0.145,0.171l0.106,0.117c0.292,0.309,0.671,0.638,1.205,0.888
			c0.527,0.254,1.209,0.371,1.8,0.308c0.595-0.058,1.085-0.244,1.468-0.44c0.77-0.405,1.247-0.854,1.67-1.275
			c0.453-0.47,0.823-0.929,1.154-1.381L159.839,160.305z"/>
	</g>
	<g>
		<path d="M183.512,205.738c0-0.182-0.021-0.38-0.063-0.564l-0.045-0.199l-4.112-18.115l0.091-1.111h-16.455l0.003,0.041
			l-4.354,19.186l-0.049,0.212c-0.039,0.177-0.059,0.361-0.059,0.55l-0.017,15.411c-0.002,1.521,1.23,2.754,2.749,2.755
			c1.52,0.002,2.753-1.23,2.755-2.749l0.016-14.954l-0.108,0.305l0.108-0.763v0.458l4.756-13.42h2.426h2.097l4.757,13.42l0-0.458
			l0.108,0.763l-0.108-0.305l0.014,14.954c0.001,1.52,1.235,2.751,2.755,2.749c1.52-0.001,2.751-1.235,2.75-2.755L183.512,205.738z"
			/>
	</g>
	<path d="M162.071,172.048l0.903,12.701h16.034l0.88-12.394c0.031-0.012,0.063-0.021,0.094-0.031l1.165-12.114
		c0.162-1.844-1.055-3.337-2.724-3.337h-4.349c-0.967,0.355-2.054,0.561-3.274,0.561s-2.308-0.207-3.273-0.561h-3.97
		c-1.667,0-2.886,1.493-2.723,3.337l1.135,11.792C162.002,172.018,162.038,172.033,162.071,172.048z"/>
</g>
<g>
	<g>
		<g>
			<path d="M386.409,250.599c0,3.699-3.499,6.699-6.7,6.699c-3.201,0-6.7-3-6.7-6.699c0-3.701,2.999-6.7,6.7-6.7
				C383.41,243.898,386.409,246.898,386.409,250.599z"/>
		</g>
	</g>
	<g>
		<path d="M392.18,307.321c0-0.183-0.021-0.38-0.063-0.564l-0.045-0.198l-4.111-18.115l0.091-1.111h-16.455l0.003,0.041
			l-4.353,19.186l-0.049,0.213c-0.039,0.176-0.059,0.361-0.059,0.55l-0.017,15.411c-0.002,1.521,1.229,2.754,2.749,2.756
			c1.521,0.002,2.754-1.23,2.756-2.75l0.016-14.954l-0.109,0.306l0.109-0.764v0.458l4.756-13.421h2.426h2.096l4.758,13.421
			l-0.001-0.458l0.108,0.764l-0.107-0.306l0.014,14.954c0.001,1.52,1.234,2.752,2.754,2.75c1.521-0.002,2.752-1.235,2.75-2.756
			L392.18,307.321z"/>
	</g>
	<path d="M370.74,273.631l0.902,12.701h16.034l0.88-12.395c0.031-0.012,0.063-0.021,0.094-0.031l1.166-12.113
		c0.162-1.845-1.055-3.338-2.725-3.338h-4.348c-0.967,0.355-2.055,0.563-3.275,0.563c-1.221,0-2.307-0.207-3.273-0.563h-3.969
		c-1.668,0-2.887,1.493-2.723,3.338l1.135,11.791C370.67,273.601,370.707,273.615,370.74,273.631z"/>
	<g>
		<path d="M368.509,261.889c-0.102-1.139,0.229-2.225,0.886-3.046l-0.573,0.12c-0.982,0.203-1.966,0.371-2.954,0.518l-1.476,0.189
			c-0.494,0.068-0.984,0.121-1.47,0.153c-0.486,0.036-0.98,0.088-1.462,0.114l-1.43,0.015l-0.809,0.004
			c-0.219-0.004-0.637,0.019-0.956,0.035c-0.627,0.057-1.245,0.143-1.849,0.281c-1.211,0.265-2.346,0.722-3.42,1.233
			c-1.068,0.528-2.062,1.161-2.976,1.875c-0.459,0.355-0.912,0.716-1.343,1.106c-0.444,0.405-0.82,0.762-1.29,1.301
			c-0.046,0.054-0.094,0.116-0.132,0.178l-0.044,0.069c-0.719,1.145-1.423,2.297-2.165,3.428c-0.028,0.043-0.058,0.093-0.083,0.139
			c-0.555,1.009-0.186,2.275,0.821,2.83c1.009,0.555,2.275,0.187,2.83-0.822c0.625-1.137,1.285-2.253,1.934-3.376
			c0.214-0.237,0.52-0.547,0.799-0.799c0.337-0.304,0.683-0.603,1.054-0.867c0.743-0.524,1.53-0.97,2.335-1.321
			c0.805-0.357,1.648-0.561,2.474-0.671c0.413-0.056,0.827-0.068,1.233-0.069l1.34,0.093c1.119,0.08,2.231,0.142,3.315,0.142
			c0.55,0.017,1.093,0.012,1.631-0.008l1.619-0.047c0.805-0.046,1.61-0.092,2.414-0.142L368.509,261.889z"/>
		<path d="M414.27,269.463c-0.742-1.131-1.446-2.283-2.165-3.428l-0.048-0.076c-0.038-0.059-0.081-0.116-0.128-0.171
			c-0.47-0.539-0.846-0.895-1.29-1.301c-0.431-0.391-0.884-0.751-1.343-1.106c-0.914-0.714-1.907-1.347-2.976-1.875
			c-1.074-0.512-2.209-0.969-3.42-1.233c-0.604-0.139-1.222-0.225-1.849-0.281c-0.319-0.017-0.737-0.039-0.956-0.035l-0.809-0.004
			l-1.43-0.015c-0.482-0.026-0.976-0.078-1.462-0.114c-0.485-0.032-0.976-0.085-1.47-0.153l-1.476-0.189
			c-0.988-0.146-1.972-0.315-2.954-0.518l-0.571-0.12c0.654,0.821,0.986,1.905,0.887,3.038l-0.256,2.662
			c0.804,0.051,1.608,0.097,2.412,0.142l1.619,0.047c0.538,0.02,1.081,0.024,1.631,0.008c1.084,0,2.196-0.061,3.315-0.142
			l1.34-0.093c0.406,0.001,0.82,0.014,1.233,0.069c0.825,0.11,1.669,0.314,2.474,0.671c0.805,0.352,1.592,0.797,2.335,1.321
			c0.371,0.265,0.717,0.563,1.054,0.867c0.279,0.252,0.585,0.561,0.799,0.799c0.648,1.123,1.309,2.239,1.934,3.376
			c0.025,0.046,0.055,0.095,0.084,0.14c0.632,0.962,1.923,1.23,2.885,0.599C414.634,271.717,414.901,270.425,414.27,269.463z"/>
	</g>
	<g>
		<path d="M355.548,272.598l-0.467-0.127l0.438-1.615c0.116-0.428-0.136-0.864-0.564-0.98c-0.426-0.115-0.861,0.134-0.978,0.559
			l0.356-1.315c0.174-0.645-0.204-1.309-0.849-1.483c-0.644-0.174-1.307,0.206-1.482,0.852l-0.796,2.935l-1.154-0.314
			c-0.187,0.328-0.379,0.652-0.561,0.983c-0.161,0.294-0.371,0.55-0.609,0.772l1.801,0.488l-0.796,2.936
			c-0.175,0.644,0.205,1.308,0.849,1.482c0.645,0.175,1.307-0.206,1.48-0.85l0.797-2.936l-0.439,1.616
			c-0.116,0.426,0.136,0.864,0.561,0.98c0.428,0.115,0.866-0.136,0.982-0.561l0.439-1.617l0.467,0.127
			c0.088,0.023,0.176,0.035,0.263,0.035c0.44,0,0.843-0.293,0.964-0.738C356.395,273.291,356.08,272.742,355.548,272.598z"/>
		<path d="M343.948,269.452l-2.548-0.691l0.796-2.935c0.175-0.645-0.205-1.308-0.848-1.482c-0.645-0.175-1.309,0.206-1.483,0.85
			l-0.796,2.935h-0.001l0.438-1.616c0.116-0.427-0.136-0.863-0.562-0.979c-0.426-0.115-0.864,0.135-0.979,0.561l-0.439,1.615
			l-0.79-0.214c-0.53-0.141-1.082,0.17-1.227,0.703c-0.145,0.533,0.171,1.082,0.703,1.227l0.79,0.214l-0.439,1.617
			c-0.115,0.426,0.136,0.864,0.562,0.98c0.426,0.115,0.863-0.136,0.979-0.561l-0.357,1.317c-0.174,0.645,0.207,1.308,0.852,1.482
			c0.643,0.175,1.306-0.206,1.48-0.85l0.796-2.937l2.966,0.805C343.645,270.838,343.677,270.12,343.948,269.452z"/>
		<path d="M408.732,273.351l1.718-0.466c-0.188-0.172-0.356-0.368-0.5-0.587c-0.044-0.067-0.086-0.138-0.123-0.204
			c-0.179-0.324-0.366-0.642-0.549-0.963l-1.069,0.29l-0.796-2.935c-0.038-0.141-0.107-0.262-0.186-0.374
			c-0.139-0.124-0.285-0.252-0.442-0.381c-0.256-0.129-0.554-0.177-0.853-0.097c-0.645,0.175-1.022,0.839-0.849,1.483l0.356,1.315
			c-0.117-0.425-0.553-0.674-0.979-0.559c-0.428,0.116-0.68,0.553-0.563,0.98l0.438,1.615l-0.467,0.127
			c-0.532,0.145-0.848,0.693-0.703,1.227c0.121,0.445,0.524,0.738,0.964,0.738c0.087,0,0.175-0.012,0.263-0.035l0.467-0.127
			l0.438,1.617c0.116,0.426,0.555,0.677,0.982,0.561c0.426-0.116,0.678-0.555,0.561-0.98l-0.439-1.616l0.797,2.936
			c0.174,0.643,0.836,1.024,1.48,0.85c0.643-0.174,1.023-0.838,0.849-1.482L408.732,273.351z"/>
		<path d="M423.905,268.199c-0.146-0.533-0.695-0.845-1.227-0.703l-0.79,0.214l-0.439-1.615c-0.115-0.427-0.554-0.677-0.979-0.561
			c-0.426,0.116-0.678,0.553-0.562,0.979l0.439,1.616h-0.001l-0.796-2.935c-0.175-0.645-0.839-1.025-1.483-0.85
			c-0.643,0.175-1.022,0.838-0.848,1.482l0.796,2.935l-2.621,0.711c0.222,0.556,0.277,1.163,0.153,1.761
			c-0.021,0.102-0.062,0.196-0.092,0.294l3.083-0.836l0.796,2.937c0.175,0.643,0.838,1.024,1.48,0.85
			c0.645-0.175,1.025-0.838,0.852-1.482l-0.357-1.317c0.116,0.425,0.554,0.676,0.979,0.561c0.426-0.116,0.677-0.555,0.561-0.98
			l-0.439-1.617l0.79-0.214C423.734,269.281,424.05,268.732,423.905,268.199z"/>
	</g>
</g>
<g>
	<g>
		<g>
			<path d="M294.293,308.873c-0.602,0-1.203-0.224-1.669-0.677c-0.948-0.921-0.97-2.436-0.048-3.385l19.163-19.727
				c0.921-0.947,2.436-0.971,3.385-0.049c0.948,0.922,0.97,2.438,0.049,3.386l-19.163,19.727
				C295.54,308.63,294.917,308.873,294.293,308.873z"/>
		</g>
	</g>
	<g>
		<g>
			<path d="M240.281,276.961l-15.798-8.002l-1.732,3.417l15.09,7.649C238.296,278.779,239.108,277.681,240.281,276.961z"/>
			<path d="M261.772,287.844c-0.171,1.303-0.688,2.549-1.555,3.522l36.391,18.443l0.933,0.143l2.503-2.727L261.772,287.844z"/>
		</g>
	</g>
	<g>
		<g>
			<path d="M317.717,269.958c0,3.699-3.499,6.699-6.7,6.699s-6.7-3-6.7-6.699c0-3.701,2.999-6.7,6.7-6.7
				S317.717,266.257,317.717,269.958z"/>
		</g>
	</g>
	<g>
		<g>
			<path d="M305.955,310.082h-83.822v-49.003c0-0.82,0.665-1.484,1.485-1.484c0.819,0,1.484,0.664,1.484,1.484v46.034h80.853
				c0.82,0,1.484,0.664,1.484,1.484C307.439,309.418,306.775,310.082,305.955,310.082z"/>
		</g>
	</g>
	<g>
		<path d="M306.757,280.786l-8.595,14.427l-0.102,0.173c-0.243,0.408-0.619,0.691-1.038,0.827l-15.927,5.154
			c-1.007,0.326-2.086-0.226-2.411-1.231c-0.326-1.008,0.225-2.087,1.231-2.412l15.928-5.154l-1.141,0.999l5.753-15.774
			c0.663-1.818,2.674-2.754,4.492-2.091c1.817,0.662,2.754,2.673,2.091,4.491C306.964,280.397,306.862,280.605,306.757,280.786z"/>
	</g>
	<g>
		<path d="M283.842,295.402l10.176-3.294c-0.076-0.126-0.132-0.26-0.22-0.382l-14.173-19.763l-0.245-0.342
			c-0.286-0.4-0.69-0.724-1.186-0.909l-16.492-6.193c-1.172-0.436-2.506,0.102-3.026,1.26c-0.543,1.206-0.006,2.624,1.201,3.167
			l14.98,6.744L283.842,295.402z"/>
		<path d="M288.386,300.059c1.408,0.288,2.925,0.026,4.185-0.877c0.312-0.224,0.588-0.476,0.836-0.748L288.386,300.059z"/>
	</g>
	<g>
		<path d="M283.842,295.402l10.176-3.294c-0.076-0.126-0.132-0.26-0.22-0.382l-14.173-19.763l-0.245-0.342
			c-0.286-0.4-0.69-0.724-1.186-0.909l-16.492-6.193c-1.172-0.436-2.506,0.102-3.026,1.26c-0.543,1.206-0.006,2.624,1.201,3.167
			l14.98,6.744L283.842,295.402z"/>
		<path d="M288.386,300.059c1.408,0.288,2.925,0.026,4.185-0.877c0.312-0.224,0.588-0.476,0.836-0.748L288.386,300.059z"/>
	</g>
	<g>
		<path d="M294.19,292.053l5.325-14.602c0.294-0.806,0.813-1.482,1.461-1.99c-1.061,0.273-2.065,0.818-2.897,1.648l-12.263,12.256
			c-1.612,1.612-2.169,3.875-1.683,5.941L294.19,292.053z"/>
		<path d="M288.657,299.971c2.115,0.566,4.467,0.025,6.128-1.635l0.516-0.515L288.657,299.971z"/>
		<path d="M308.247,278.791c0.026,0.586-0.063,1.178-0.27,1.746c-0.091,0.248-0.214,0.508-0.357,0.753l-6.209,10.423l5.636-5.633
			C309.02,284.107,309.416,281.161,308.247,278.791z"/>
	</g>
	<path d="M250.146,269.709c-7.941,0-14.38,6.438-14.38,14.379c0,7.941,6.438,14.38,14.38,14.38c7.941,0,14.38-6.439,14.38-14.38
		C264.526,276.147,258.088,269.709,250.146,269.709z M250.146,295.154c-6.101,0-11.065-4.965-11.065-11.066
		c0-6.101,4.965-11.063,11.065-11.063s11.063,4.963,11.063,11.063C261.21,290.19,256.247,295.154,250.146,295.154z"/>
	<g>
		<path d="M241.382,279.157l3.525,1.646c0.938-1.851,2.756-3.229,5.468-3.229c0.505,0,0.977,0.05,1.421,0.139l0.237-0.462
			c1.018,0.108,1.898,0.417,2.63,0.882l1.125-2.372c-1.61-1.095-3.552-1.735-5.642-1.735
			C246.389,274.024,243.11,276.098,241.382,279.157z"/>
		<path d="M250.146,268.709c2.903,0,5.611,0.823,7.93,2.226l4.189-8.831c0.567-1.194,0.059-2.622-1.137-3.189
			c-1.196-0.567-2.622-0.057-3.189,1.137l-2.828,5.962c-4.568-1.114-14.946-2.083-22.093,9.238l3.539,1.652
			C239.142,272.036,244.261,268.709,250.146,268.709z"/>
	</g>
	<path d="M250.146,273.801c-5.685,0-10.291,4.606-10.291,10.287c0,5.685,4.606,10.287,10.291,10.287s10.291-4.603,10.291-10.287
		C260.438,278.407,255.831,273.801,250.146,273.801z M250.146,287.932c-2.124,0-3.846-1.72-3.846-3.844
		c0-2.123,1.722-3.844,3.846-3.844c2.124,0,3.846,1.721,3.846,3.844C253.992,286.212,252.27,287.932,250.146,287.932z"/>
</g>
<g>
	<g>
		<path d="M266.212,144.75c-3.748,0-6.787,3.039-6.787,6.787c0,3.749,3.545,6.788,6.787,6.788c3.245,0,6.787-3.039,6.787-6.788
			C272.999,147.789,269.963,144.75,266.212,144.75z"/>
	</g>
	<g>
		<path d="M254.215,162.268c-0.07-0.723,0.057-1.408,0.325-2.028c-0.002,0.001-0.08,0.076-0.229,0.215
			c-0.164,0.147-0.406,0.371-0.73,0.643c-0.649,0.54-1.591,1.322-2.777,2.152c-1.186,0.816-2.608,1.736-4.143,2.423
			c-0.763,0.332-1.558,0.601-2.255,0.714c-0.714,0.118-1.193,0.032-1.398-0.091c-0.059-0.038-0.122-0.074-0.184-0.142
			c-0.119-0.137-0.308-0.383-0.454-0.572c-0.313-0.404-0.625-0.806-0.934-1.205c-0.618-0.798-1.228-1.583-1.817-2.344
			c-1.19-1.512-2.246-2.964-3.173-4.193c-1.84-2.467-3.011-4.155-3.011-4.155c-0.028-0.042-0.064-0.089-0.097-0.129
			c-0.727-0.892-2.039-1.025-2.932-0.299c-0.892,0.727-1.025,2.04-0.298,2.932c0,0,1.295,1.593,3.154,4.046
			c0.922,1.232,2.024,2.65,3.146,4.213c0.566,0.777,1.151,1.581,1.746,2.397c0.298,0.408,0.597,0.819,0.898,1.232l0.472,0.652
			c0.249,0.342,0.562,0.661,0.904,0.94c0.696,0.561,1.532,0.903,2.296,1.058c0.771,0.162,1.484,0.168,2.144,0.123
			c1.315-0.104,2.439-0.417,3.473-0.765c2.061-0.697,3.779-1.553,5.221-2.331c0.416-0.226,0.801-0.44,1.169-0.648L254.215,162.268z"
			/>
		<path d="M301.151,153.161c-0.946-0.656-2.244-0.421-2.9,0.524c0,0-1.17,1.688-3.01,4.155c-0.928,1.229-1.982,2.681-3.174,4.193
			c-0.589,0.76-1.198,1.546-1.817,2.344c-0.31,0.399-0.621,0.801-0.935,1.205c-0.146,0.189-0.335,0.436-0.453,0.571
			c-0.062,0.067-0.125,0.104-0.184,0.142c-0.205,0.123-0.685,0.209-1.399,0.091c-0.697-0.114-1.492-0.383-2.255-0.714
			c-1.534-0.687-2.957-1.607-4.143-2.424c-1.156-0.809-2.075-1.567-2.723-2.106c0.061,0.362,0.093,0.733,0.056,1.116l-0.557,5.24
			c0.156,0.086,0.303,0.169,0.466,0.257c1.442,0.778,3.16,1.635,5.221,2.331c1.034,0.347,2.158,0.66,3.473,0.765
			c0.66,0.045,1.372,0.039,2.145-0.123c0.764-0.154,1.6-0.497,2.295-1.057c0.344-0.279,0.656-0.598,0.905-0.939l0.473-0.653
			c0.301-0.413,0.601-0.824,0.898-1.232c0.595-0.816,1.18-1.62,1.746-2.397c1.121-1.564,2.224-2.982,3.146-4.214
			c1.859-2.453,3.155-4.046,3.155-4.046c0.031-0.04,0.066-0.087,0.097-0.129C302.331,155.115,302.097,153.817,301.151,153.161z"/>
	</g>
	<g>
		<path d="M234.815,153.909c0.29,0.408,0.683,0.955,1.167,1.62h23.649c-0.325-0.504-0.603-1.043-0.804-1.62H234.815z"/>
		<path d="M228.654,154.561c0.022-0.225,0.074-0.441,0.143-0.651h-1.836v-6.276h-3.645v6.276h-1.466
			c-0.448,0-0.811,0.363-0.811,0.81c0,0.447,0.363,0.81,0.811,0.81h1.466v6.276h3.645v-6.276h1.761
			C228.653,155.214,228.621,154.89,228.654,154.561z"/>
		<path d="M296.869,153.909h-23.273c-0.201,0.576-0.479,1.115-0.804,1.62h22.911C296.188,154.864,296.579,154.318,296.869,153.909z"
			/>
		<path d="M310.52,153.909h-1.996v-6.276h-3.645v6.276h-1.999c0.171,0.52,0.212,1.078,0.095,1.62h1.904v6.276h3.645v-6.276h1.996
			c0.447,0,0.811-0.362,0.811-0.81C311.33,154.272,310.967,153.909,310.52,153.909z"/>
	</g>
	<path d="M283.678,202.02c-0.038-0.631-0.289-1.255-0.755-1.752l-0.227-0.241l-7.98-8.501v-3.597h-17.014v3.602l-7.975,8.497
		l-0.227,0.243c-0.432,0.46-0.712,1.069-0.753,1.749l-1.073,17.79c-0.096,1.582,1.109,2.941,2.691,3.037
		c1.582,0.095,2.941-1.11,3.037-2.691l0.991-16.433l10.96-7.743c0.229-0.163,0.464-0.364,0.664-0.577
		c0.074-0.079,0.126-0.169,0.192-0.251c0.247,0.305,0.522,0.591,0.858,0.829l10.963,7.742l0.99,16.433
		c0.096,1.581,1.455,2.787,3.037,2.691c1.582-0.096,2.786-1.455,2.691-3.037L283.678,202.02z"/>
	<path d="M256.549,173.777l1.032,13.151h17.267l1.008-12.85c0.033-0.012,0.067-0.02,0.102-0.031l1.262-11.886
		c0.176-1.81-1.143-3.274-2.95-3.274h-4.713c-1.047,0.348-2.225,0.551-3.548,0.551c-1.323,0-2.501-0.203-3.547-0.551h-4.302
		c-1.807,0-3.126,1.464-2.95,3.274l1.23,11.569C256.474,173.748,256.513,173.763,256.549,173.777z"/>
</g>
<g>
	<g>
		<g>
			<path d="M90.825,352.667c0.593,3.817-2.537,7.474-5.842,7.986c-3.303,0.513-7.393-2.023-7.986-5.841
				c-0.592-3.819,2.022-7.395,5.841-7.987C86.657,346.232,90.233,348.847,90.825,352.667z"/>
		</g>
	</g>
	<g>
		<path d="M87.247,371.448l-16.345,1.582l-0.249,0.024c-0.685,0.066-1.329-0.236-1.731-0.733l-8.262-10.355
			c-0.689-0.863-0.547-2.122,0.316-2.81c0.863-0.689,2.122-0.547,2.81,0.316l8.262,10.355l-1.98-0.709l15.571-5.217
			c2.033-0.681,4.234,0.415,4.915,2.448s-0.415,4.234-2.448,4.915C87.828,371.358,87.526,371.419,87.247,371.448z"/>
	</g>
	<path d="M96.53,383.972l-2.607-16.8c-0.578-3.729-4.07-6.283-7.801-5.704c-1.861,0.289-3.43,1.304-4.462,2.712l3.662-1.227
		c0.503-0.168,1.025-0.254,1.551-0.254c2.102,0,3.962,1.34,4.63,3.333c0.414,1.236,0.322,2.561-0.259,3.728
		c-0.582,1.168-1.583,2.039-2.82,2.453c-0.329,0.111-0.701,0.191-1.073,0.23l-6.344,0.614l2.019,13.011
		c0.579,3.728,4.071,6.283,7.8,5.704C94.554,391.193,97.108,387.7,96.53,383.972z"/>
	<g>
		<path d="M86.666,369.049l3.107,1.093c0.221-0.251,0.421-0.521,0.574-0.827c0.462-0.929,0.536-1.982,0.206-2.965
			c-0.531-1.585-2.011-2.65-3.682-2.65c-0.416,0-0.832,0.068-1.235,0.202l-1.091,0.365c-0.026,0.064-0.063,0.118-0.086,0.184
			C83.8,366.329,84.788,368.388,86.666,369.049z"/>
		<path d="M94.911,367.019l0.809,5.214l7.925,2.786v10.772c0,1.105,0.896,2,2,2s2-0.895,2-2v-12.182
			c-0.001-0.698-0.372-1.379-1.027-1.74l-0.155-0.085l-12.102-6.673C94.617,365.709,94.807,366.347,94.911,367.019z"/>
		<path d="M108.87,404.17l-16.959-5.388l4.499-8.301c0.305-0.569,0.52-1.229,0.589-1.911c0.019-0.181,0.002-0.355,0.001-0.534
			c-0.236,0.563-0.531,1.103-0.9,1.607c-1.235,1.688-3.054,2.796-5.122,3.116c-0.4,0.063-0.807,0.094-1.209,0.094c0,0,0,0-0.001,0
			c-3.411,0-6.333-2.154-7.398-5.282l-9.121,6.144l-0.366,0.245c-0.284,0.193-0.528,0.455-0.706,0.776l-8.684,15.75
			c-0.657,1.19-0.224,2.688,0.967,3.345c1.191,0.656,2.688,0.224,3.345-0.968l8.234-14.934l10.094-3.338l-0.508,4.975l-0.06,0.576
			c-0.121,1.183,0.597,2.329,1.775,2.703l19.938,6.334c1.383,0.439,2.861-0.326,3.301-1.709
			C111.018,406.087,110.253,404.609,108.87,404.17z"/>
	</g>
	<g>
		<path d="M56.664,378.422l-6.708-11.393c-0.861-1.463-2.743-1.949-4.204-1.089c-0.094,0.056-0.172,0.126-0.259,0.19
			c-1.248,0.923-1.635,2.647-0.83,4.016l6.708,11.393c0.861,1.463,2.743,1.949,4.205,1.089c0.215-0.127,0.402-0.281,0.574-0.446
			C57.144,381.216,57.397,379.669,56.664,378.422z"/>
	</g>
	<path d="M114.824,414.807l-77.184-2.271l-2.049-36.357h11.462l-2.231-3.789H33.59h-0.088h-1.7l-0.107,1.895l-2.391,42.417
		l-0.005,0.092l-0.244,4.327l4.446-0.132l0.088-0.002l81.234-2.391c0.981-0.031,1.786-0.814,1.834-1.803
		c0-0.013,0.004-0.024,0.005-0.036C116.693,415.711,115.87,414.837,114.824,414.807z"/>
</g>
<g>
	<g>
		<path d="M63.391,244.114c-0.195,0-0.387,0.012-0.578,0.029c-3.163,0.292-5.64,2.95-5.64,6.188c0,3.212,2.841,5.854,5.64,6.183
			c0.193,0.022,0.386,0.035,0.578,0.035c2.972,0,6.217-2.783,6.217-6.218C69.608,246.899,66.825,244.114,63.391,244.114z"/>
	</g>
	<g>
		<path d="M89.294,321.528c0,0.585-0.366,1.059-0.817,1.059h-8.338c-0.451,0-0.817-0.474-0.817-1.059l0,0
			c0-0.584,0.366-1.059,0.817-1.059h8.338C88.928,320.47,89.294,320.944,89.294,321.528L89.294,321.528z"/>
	</g>
	<g>
		<path d="M46.819,321.528c0,0.585-0.366,1.059-0.817,1.059h-8.338c-0.452,0-0.817-0.474-0.817-1.059l0,0
			c0-0.584,0.366-1.059,0.817-1.059h8.338C46.454,320.47,46.819,320.944,46.819,321.528L46.819,321.528z"/>
	</g>
	<g>
		<path d="M84.307,271.038c-0.856,0-1.55,0.693-1.55,1.55v47.882c0,0.857,0.694,1.55,1.55,1.55c0.856,0,1.55-0.693,1.55-1.55
			v-47.882C85.857,271.731,85.163,271.038,84.307,271.038z"/>
	</g>
	<g>
		<path d="M41.832,271.038c-0.856,0-1.55,0.693-1.55,1.55v47.882c0,0.857,0.694,1.55,1.55,1.55c0.856,0,1.55-0.693,1.55-1.55
			v-47.882C43.382,271.731,42.688,271.038,41.832,271.038z"/>
	</g>
	<g>
		<path d="M69.368,257.383h-3.498c-0.777,0.286-1.651,0.451-2.633,0.451c-0.981,0-1.855-0.165-2.632-0.451h-3.192
			c-1.341,0-2.321,1.201-2.19,2.684l0.912,9.483c0.026,0.014,0.056,0.025,0.082,0.037l0.049,12.044h13.95l0.331-11.796
			c0.025-0.011,0.05-0.017,0.076-0.025l0.937-9.744C71.689,258.584,70.711,257.383,69.368,257.383z"/>
	</g>
	<path d="M70.254,282.631H56.142l-0.011-0.154l-0.81,3.568l-2.496,10.992l-0.036,0.157c-0.148,0.67-0.01,1.398,0.441,1.984
		l5.499,7.138l0.835,1.084l-2.274,3.832c-0.679,1.145-0.302,2.623,0.843,3.302c1.144,0.679,2.623,0.302,3.302-0.843l1.597-2.69
		c0.24,0.057,0.485,0.09,0.732,0.071c0.455-0.033,0.905-0.192,1.293-0.491c0.947-0.73,1.195-2.022,0.647-3.043
		c-0.062-0.115-0.127-0.229-0.209-0.337l-0.118-0.152l5.104-8.602c0.228-0.382,0.35-0.829,0.332-1.307l-0.006-0.166L70.254,282.631z
		 M62.212,302.94l-0.504-0.654l-3.862-5.013l3.98-11.228h1.76h0.546l1.76,10.692L62.212,302.94z"/>
	<path d="M79.689,287.605c-1.046,0.198-2.055-0.49-2.253-1.537c-0.007-0.037-0.013-0.074-0.017-0.111l-0.004-0.026
		c0,0-0.051-0.405-0.141-1.115c-0.107-0.711-0.236-1.734-0.46-2.947c-0.226-1.212-0.467-2.631-0.826-4.112
		c-0.175-0.742-0.37-1.498-0.581-2.25c-0.108-0.358-0.224-0.767-0.333-1.08l-0.162-0.473l-0.242-0.575
		c-0.758-1.426-1.516-2.853-2.226-4.189c-0.217-0.386-0.434-0.759-0.649-1.124l0.76-7.91c0.044-0.5-0.013-0.989-0.151-1.444
		c0.071,0.08,0.146,0.153,0.208,0.243c0.099,0.143,0.188,0.306,0.258,0.458c0,0,0.692,1.555,1.731,3.887
		c0.506,1.164,1.097,2.523,1.729,3.979c0.616,1.487,1.273,3.074,1.931,4.66l0.217,0.586l0.227,0.71
		c0.147,0.475,0.242,0.866,0.356,1.296c0.204,0.833,0.386,1.645,0.544,2.427c0.312,1.566,0.617,3.009,0.839,4.253
		c0.469,2.486,0.782,4.143,0.782,4.143C81.424,286.399,80.736,287.408,79.689,287.605z M54.227,260.162
		c-0.018-0.2-0.006-0.396,0.005-0.591c-0.193,0.435-0.806,1.81-1.66,3.727c-0.506,1.164-1.097,2.523-1.729,3.979
		c-0.616,1.487-1.273,3.074-1.931,4.66l-0.217,0.586l-0.227,0.71c-0.147,0.475-0.242,0.866-0.356,1.296
		c-0.204,0.833-0.386,1.645-0.544,2.427c-0.312,1.566-0.617,3.009-0.839,4.253c-0.469,2.486-0.782,4.143-0.782,4.143
		c-0.007,0.037-0.014,0.08-0.019,0.117c-0.133,1.057,0.616,2.022,1.673,2.154c1.057,0.134,2.021-0.615,2.155-1.673l0.002-0.021
		c0,0,0.051-0.405,0.141-1.115c0.107-0.711,0.236-1.734,0.46-2.947c0.226-1.212,0.467-2.631,0.826-4.112
		c0.175-0.742,0.37-1.498,0.581-2.25c0.108-0.358,0.224-0.767,0.333-1.08l0.162-0.473l0.242-0.575
		c0.758-1.426,1.516-2.853,2.226-4.189c0.104-0.186,0.209-0.363,0.313-0.545L54.227,260.162z"/>
	<g>
		<path d="M45.747,281.023c0.005-0.027,0.011-0.059,0.016-0.086l-2.96-8.08c-0.197-0.537-0.791-0.811-1.326-0.615
			c-0.536,0.196-0.812,0.79-0.615,1.326l4.152,11.334L45.747,281.023z"/>
		<path d="M48.549,288.543c-0.227,0.057-0.46,0.097-0.703,0.097c-0.122,0-0.246-0.008-0.37-0.023
			c-0.471-0.06-0.904-0.239-1.285-0.502l0.691,1.888c0.153,0.419,0.549,0.679,0.97,0.679c0.118,0,0.238-0.021,0.355-0.064
			c0.536-0.196,0.812-0.79,0.615-1.326L48.549,288.543z"/>
		<path d="M84.663,272.242c-0.536-0.196-1.129,0.078-1.326,0.615l-2.282,6.23c0.137,0.685,0.267,1.346,0.374,1.945l0.379,2.008
			l3.47-9.473C85.474,273.032,85.199,272.439,84.663,272.242z"/>
		<path d="M79.328,288.64c-0.585,0-1.131-0.182-1.594-0.485l-0.417,1.137c-0.197,0.536,0.079,1.13,0.615,1.326
			c0.117,0.043,0.237,0.064,0.355,0.064c0.421,0,0.817-0.26,0.97-0.679l0.515-1.404C79.623,288.62,79.475,288.64,79.328,288.64z"/>
	</g>
	<g>
		<polygon points="53.386,273.848 53.298,274.06 73.874,274.06 73.748,273.766 72.337,271.115 54.838,271.115 		"/>
		<path d="M47.228,273.962c0.086-0.328,0.17-0.651,0.286-1.024l0.229-0.719l0.232-0.629l0.196-0.475h-6.34
			c-0.813,0-1.473,0.659-1.473,1.473c0,0.814,0.66,1.473,1.473,1.473h5.37L47.228,273.962z"/>
		<path d="M84.307,271.115h-5.305l0.182,0.439l0.231,0.621l0.242,0.753c0.118,0.382,0.203,0.705,0.289,1.034l0.026,0.098h4.335
			c0.813,0,1.473-0.659,1.473-1.473C85.78,271.774,85.12,271.115,84.307,271.115z"/>
	</g>
</g>
<g>
	<g>
		<path d="M299.895,352.018c0.041-0.197,0.075-0.397,0.097-0.6c0.023-0.206,0.037-0.416,0.037-0.628
			c0-3.767-3.053-6.819-6.818-6.819c-3.767,0-6.819,3.053-6.819,6.819c0,0.212,0.014,0.422,0.037,0.628
			c0.02,0.202,0.055,0.399,0.096,0.596c0.001,0.002,0.001,0.003,0.001,0.005l0,0c0.663,3.179,3.79,5.59,6.686,5.59
			S299.231,355.197,299.895,352.018L299.895,352.018L299.895,352.018z"/>
	</g>
	<g>
		<path d="M305.731,407.86c0-0.182-0.021-0.38-0.063-0.565l-0.045-0.199l-4.112-18.115l0.091-1.11h-16.455l0.004,0.041
			l-4.354,19.186l-0.049,0.212c-0.039,0.178-0.059,0.361-0.059,0.551l-0.018,15.411c-0.002,1.52,1.23,2.754,2.75,2.755
			c1.52,0.002,2.754-1.228,2.755-2.749l0.016-14.954l-0.108,0.305l0.108-0.762v0.457l4.756-13.42h2.426h2.097l4.757,13.42
			l-0.001-0.457l0.109,0.762l-0.108-0.305l0.014,14.954c0.001,1.521,1.235,2.751,2.755,2.749c1.52-0.001,2.752-1.234,2.75-2.755
			L305.731,407.86z"/>
	</g>
	<path d="M284.291,374.17l0.902,12.701h16.034l0.881-12.395c0.031-0.012,0.063-0.021,0.094-0.031l1.165-12.114
		c0.162-1.844-1.055-3.336-2.724-3.336h-4.349c-0.967,0.355-2.054,0.561-3.274,0.561c-1.221,0-2.308-0.206-3.273-0.561h-3.97
		c-1.667,0-2.886,1.492-2.723,3.336l1.135,11.792C284.222,374.14,284.258,374.155,284.291,374.17z"/>
	<g>
		<path d="M282.06,362.427c-0.077-0.869,0.1-1.707,0.475-2.424c-0.657,0.215-1.401,0.464-2.232,0.743
			c-1.494,0.503-3.218,1.153-5.071,1.942c-0.927,0.396-1.883,0.844-2.855,1.388c-0.977,0.563-1.951,1.142-2.975,2.203l-0.261,0.282
			l-0.35,0.428c-0.24,0.297-0.378,0.529-0.564,0.799c-0.319,0.524-0.608,1.052-0.836,1.575c-0.472,1.048-0.808,2.079-1.071,3.072
			c-0.518,1.988-0.835,3.82-1.025,5.398c-0.185,1.575-0.311,2.883-0.363,3.807c-0.05,0.944-0.079,1.485-0.079,1.485
			c-0.062,1.129,0.806,2.094,1.935,2.155c0.102,0.006,0.198-0.005,0.296-0.014c0.997-0.091,1.804-0.893,1.859-1.922
			c0.002-0.049,0.003-0.099,0.002-0.147l-0.001-0.072c0,0-0.002-0.112-0.007-0.324c-0.002-0.222-0.008-0.555,0.006-0.98
			c0.03-0.849,0.064-2.073,0.24-3.52c0.182-1.44,0.421-3.126,0.921-4.806c0.246-0.838,0.551-1.671,0.922-2.435
			c0.18-0.388,0.393-0.736,0.605-1.07c0.106-0.142,0.236-0.342,0.322-0.433l0.13-0.162l0.267-0.265
			c0.419-0.375,1.222-0.835,2.012-1.186c0.806-0.366,1.661-0.687,2.512-0.968c1.701-0.564,3.38-0.944,4.815-1.263
			c0.234-0.051,0.453-0.094,0.675-0.138L282.06,362.427z"/>
		<path d="M321.487,381.64c-0.052-0.924-0.178-2.231-0.363-3.807c-0.189-1.577-0.507-3.409-1.024-5.398
			c-0.264-0.993-0.6-2.024-1.071-3.072c-0.228-0.523-0.517-1.051-0.836-1.575c-0.186-0.27-0.323-0.502-0.563-0.799l-0.351-0.428
			l-0.261-0.282c-1.023-1.061-1.998-1.641-2.975-2.203c-0.973-0.544-1.929-0.991-2.855-1.388c-1.853-0.789-3.577-1.44-5.071-1.942
			c-0.829-0.279-1.572-0.527-2.228-0.742c0.374,0.716,0.552,1.552,0.476,2.415l-0.304,3.159c0.221,0.044,0.438,0.086,0.671,0.137
			c1.435,0.318,3.114,0.698,4.815,1.263c0.851,0.281,1.706,0.602,2.512,0.968c0.79,0.351,1.593,0.811,2.012,1.186l0.267,0.265
			l0.13,0.162c0.086,0.091,0.216,0.291,0.322,0.433c0.213,0.334,0.425,0.683,0.605,1.07c0.371,0.764,0.676,1.597,0.922,2.435
			c0.5,1.68,0.739,3.365,0.921,4.806c0.176,1.447,0.21,2.672,0.24,3.52c0.014,0.425,0.008,0.758,0.006,0.98
			c-0.005,0.212-0.007,0.324-0.007,0.324l-0.002,0.072c0,0.049,0,0.099,0.003,0.147c0.056,1.029,0.862,1.831,1.859,1.922
			c0.098,0.009,0.194,0.02,0.296,0.014c1.129-0.061,1.996-1.026,1.935-2.155C321.566,383.125,321.537,382.584,321.487,381.64z"/>
	</g>
	<g>
		<path d="M269.933,382.392c0,0.116,0.001,0.227,0.002,0.315l0.008,0.4c0.002,0.139,0.001,0.209-0.002,0.277
			c-0.009,0.162-0.036,0.318-0.069,0.473h14.105l-0.104-1.466H269.933z"/>
		<path d="M316.545,383.857c-0.031-0.15-0.059-0.302-0.067-0.459c-0.003-0.063-0.004-0.133-0.004-0.201l0.009-0.42
			c0.001-0.124,0.002-0.252,0.002-0.386h-13.936l-0.104,1.466H316.545z"/>
	</g>
	<path d="M263.853,383.07l0.036-0.679h-2.888v-5.682h-3.299h-3.298v5.682h-1.329c-0.404,0-0.733,0.328-0.733,0.733
		c0,0.404,0.329,0.732,0.733,0.732h1.329v5.682h3.298h3.299v-5.682h2.923C263.872,383.603,263.839,383.342,263.853,383.07z"/>
	<path d="M333.342,382.392h-1.099v-5.682h-3.3h-3.299v5.682h-3.115l0.036,0.68c0.015,0.269-0.018,0.53-0.071,0.786h3.15v5.682h3.299
		h3.3v-5.682h1.099c0.404,0,0.732-0.328,0.732-0.732C334.074,382.72,333.746,382.392,333.342,382.392z"/>
</g>
<g>
	<g>
		<g>
			<path d="M365.248,408c-0.725,0-1.363-0.527-1.479-1.266l-6.004-37.986c-0.13-0.818,0.429-1.587,1.247-1.716
				c0.815-0.132,1.587,0.429,1.716,1.247l6.004,37.986c0.13,0.818-0.429,1.587-1.247,1.716C365.405,407.994,365.326,408,365.248,408
				z"/>
		</g>
	</g>
	<g>
		<g>
			<path d="M401.778,390.776c-0.935,0.763-2.167,1.243-3.682,1.297c-0.253,0.117-0.522,0.216-0.804,0.299l-0.836,5.053
				c-0.225,1.362,0.696,2.649,2.059,2.875c0.139,0.022,0.275,0.033,0.411,0.033c1.201,0,2.261-0.868,2.464-2.092l0.91-5.5
				C402.421,392.013,402.206,391.31,401.778,390.776z"/>
		</g>
	</g>
	<g>
		<path d="M398.721,357.041c0.225-0.194,0.443-0.397,0.646-0.619c0.005-0.004,0.009-0.01,0.014-0.015
			c0.202-0.221,0.388-0.458,0.565-0.701c0.045-0.063,0.09-0.127,0.134-0.191c0.173-0.253,0.336-0.513,0.478-0.785
			c0.001-0.002,0.001-0.004,0.002-0.006c0.141-0.271,0.258-0.553,0.363-0.84c0.027-0.072,0.053-0.145,0.076-0.218
			c0.098-0.294,0.183-0.592,0.239-0.896c0,0,0,0,0-0.001c0.057-0.303,0.083-0.612,0.096-0.924c0.003-0.078,0.004-0.155,0.004-0.234
			c0.001-0.315-0.014-0.632-0.064-0.951c-0.592-3.82-4.168-6.435-7.987-5.842c-0.254,0.039-0.502,0.094-0.745,0.159
			c-0.075,0.021-0.147,0.047-0.222,0.07c-0.165,0.05-0.33,0.102-0.489,0.163c-0.083,0.032-0.163,0.07-0.244,0.105
			c-0.146,0.063-0.29,0.128-0.431,0.2c-0.08,0.041-0.157,0.085-0.234,0.13c-0.137,0.077-0.27,0.157-0.401,0.243
			c-0.071,0.047-0.143,0.096-0.212,0.146c-0.132,0.094-0.259,0.191-0.383,0.294c-0.061,0.05-0.122,0.101-0.182,0.152
			c-0.128,0.113-0.25,0.231-0.37,0.354c-0.048,0.049-0.097,0.096-0.143,0.145c-0.13,0.142-0.253,0.288-0.371,0.439
			c-0.028,0.036-0.06,0.071-0.088,0.108c-1.095,1.456-1.627,3.334-1.326,5.277c0.594,3.817,4.684,6.354,7.986,5.841
			c0.827-0.128,1.643-0.453,2.393-0.929c-0.001,0-0.001,0.001-0.001,0.001c0.006-0.003,0.01-0.008,0.016-0.012
			c0.242-0.154,0.475-0.329,0.701-0.514C398.602,357.143,398.661,357.093,398.721,357.041z"/>
	</g>
	<g>
		<path d="M365.563,374.695c-0.642,0.586-3.556,3.113-4.142,2.472l-7.259-12.612c-0.587-0.642-0.542-1.637,0.1-2.223l0,0
			c0.642-0.586,1.636-0.542,2.223,0.1l9.178,10.041C366.25,373.114,366.205,374.109,365.563,374.695L365.563,374.695z"/>
	</g>
	<g>
		<rect x="363.412" y="420.95" width="39.681" height="1.55"/>
	</g>
	<path d="M396.893,403.467c-3.424,0-6.2,2.776-6.2,6.2s2.776,6.2,6.2,6.2s6.2-2.776,6.2-6.2S400.316,403.467,396.893,403.467z
		 M399.192,412.584l-2.3-1.671l-2.3,1.671l0.878-2.704l-2.3-1.671h2.843l0.879-2.704l0.879,2.704h2.843l-2.3,1.671L399.192,412.584z
		"/>
	<g>
		<path d="M400.58,363.148c-0.01-0.014-0.021-0.022-0.031-0.036c-1.257-1.722-3.665-2.121-5.407-0.883l-9.609,6.831l-8.585-4.095
			c-0.997-0.476-2.191-0.054-2.666,0.943c-0.001,0.001-0.001,0.002-0.001,0.003c-0.474,0.997-0.052,2.188,0.944,2.663l9.624,4.591
			c0.435,0.206,0.949,0.253,1.44,0.088l0.328-0.11l12.026-4.039c0.348-0.118,0.702-0.294,1.018-0.518
			C401.417,367.339,401.828,364.903,400.58,363.148z"/>
	</g>
	<path d="M373.28,365.71v-0.212l0.184-0.185c0.525-0.942,1.534-1.542,2.623-1.542c0.258,0,0.508,0.042,0.753,0.105
		c0.378-1.344,0.638-2.801,0.743-4.399c0.055-0.826-0.571-1.541-1.398-1.596c-0.792-0.05-1.541,0.571-1.596,1.398
		c-0.279,4.235-1.64,7.338-4.043,9.223c-3.709,2.906-8.81,2.047-8.858,2.037c-0.813-0.139-1.593,0.393-1.741,1.207
		c-0.148,0.815,0.392,1.597,1.206,1.745c0.098,0.018,1.022,0.179,2.391,0.179c2.292,0,5.833-0.452,8.828-2.787
		c0.677-0.528,1.277-1.135,1.825-1.795C373.214,368.287,372.819,366.928,373.28,365.71z"/>
	<path d="M406.979,381.964l-2.607-16.8c-0.476-3.066-2.924-5.335-5.853-5.723c-1.113,0.643-2.468,1.025-4.07,1.025
		c-0.164,0-0.317-0.016-0.477-0.023c-1.242,0.785-2.182,1.958-2.71,3.316l3.3-2.346c0.833-0.592,1.811-0.905,2.831-0.905
		c1.541,0,3.005,0.734,3.928,1.966l0.072,0.093c0.76,1.068,1.058,2.366,0.84,3.657c-0.219,1.29-0.926,2.419-1.993,3.178
		c-0.383,0.271-0.823,0.495-1.274,0.649l-7.285,2.446l1.609,10.37l3.831-3.155c1.082-0.892,2.449-1.383,3.85-1.383
		c1.82,0,3.526,0.806,4.683,2.209c0.765,0.929,1.226,2.038,1.348,3.208C407.064,383.165,407.073,382.57,406.979,381.964z"/>
	<g>
		<path d="M402.835,389.1l-15.175,6.001l0.872-0.874l-8.823,15.021c-0.689,1.172-2.197,1.564-3.37,0.876
			c-1.172-0.688-1.565-2.197-0.876-3.37l8.823-15.021c0.119-0.203,0.27-0.376,0.44-0.518l0.433-0.355l12.598-10.374
			c2.157-1.776,5.348-1.468,7.124,0.69c1.777,2.158,1.469,5.348-0.69,7.125C403.778,388.64,403.307,388.91,402.835,389.1z"/>
	</g>
	<path d="M405.027,388.89c-0.067,0.061-0.13,0.124-0.2,0.182c-0.475,0.391-1.034,0.722-1.619,0.956l-5.831,2.306h6.791
		c1.012,0,1.833-0.821,1.833-1.833C406.001,389.8,405.603,389.198,405.027,388.89z"/>
	<path d="M394.945,381.504l-8.695,2.077l-0.387,0.092c-0.958,0.228-1.67,1.09-1.67,2.118v4.566L394.945,381.504z"/>
	<path d="M384.987,402.236c0.386,0.325,0.878,0.529,1.422,0.529c1.224,0,2.216-0.992,2.216-2.216v-4.507L384.987,402.236z"/>
	<path d="M404.069,397.303c-0.806-0.783-1.666-1.257-2.563-1.257l-11.882,2.52v1.984c0,1.773-1.442,3.216-3.216,3.216
		c-0.692,0-1.367-0.241-1.929-0.668l-3.909,6.656c-0.619,1.054-1.764,1.708-2.988,1.708c-0.613,0-1.219-0.164-1.75-0.477
		c-1.647-0.967-2.199-3.093-1.232-4.738l3.017-5.136l-13.294,2.818c-4.438,0-8.037,3.599-8.037,8.037
		c0,1.538,0.439,2.97,1.188,4.191c1.413,2.305,3.948,3.847,6.849,3.847h37.184c4.44,0,8.038-3.599,8.038-8.038
		C409.545,408.425,407.252,400.401,404.069,397.303z M396.893,417.186c-4.152,0-7.52-3.367-7.52-7.52c0-4.152,3.367-7.52,7.52-7.52
		c4.152,0,7.52,3.367,7.52,7.52C404.412,413.819,401.045,417.186,396.893,417.186z"/>
</g>
<g>
	<g>
		<g>
			<path d="M334.388,185.986c1-3.749,5.355-5.843,8.599-4.978c3.244,0.865,5.978,4.849,4.978,8.598c-1,3.749-4.85,5.977-8.599,4.977
				C335.619,193.585,333.389,189.735,334.388,185.986z"/>
		</g>
	</g>
	<g>
		<g>
			<path d="M414.789,160.648c-0.225-3.873-4.07-6.8-7.421-6.605c-3.353,0.194-6.831,3.547-6.605,7.42
				c0.225,3.873,3.549,6.831,7.42,6.605C412.056,167.843,415.015,164.521,414.789,160.648z"/>
		</g>
	</g>
	<g>
		<path d="M365.869,163.598c0,0.001-2.472-0.037-6.145,0.126c-1.839,0.075-3.979,0.189-6.265,0.359
			c-1.145,0.077-2.325,0.165-3.523,0.276c-0.6,0.052-1.203,0.104-1.809,0.157l-0.88,0.08l-0.908,0.112
			c-2.424,0.287-4.843,0.601-7.107,0.922c-2.264,0.325-4.372,0.646-6.176,0.952c-3.609,0.596-5.996,1.116-5.996,1.116
			c-1.599,0.348-3.176-0.665-3.524-2.263c-0.349-1.599,0.665-3.177,2.263-3.525c0.102-0.022,0.202-0.039,0.303-0.05l0.029-0.003
			c0,0,2.426-0.268,6.037-0.855c1.806-0.286,3.908-0.654,6.157-1.068c2.248-0.417,4.642-0.891,7.031-1.393
			c1.205-0.249,2.41-0.497,3.597-0.741c1.179-0.237,2.335-0.49,3.452-0.744c2.238-0.492,4.321-0.995,6.102-1.449
			c3.564-0.897,5.918-1.64,5.918-1.639l0.032-0.01c2.6-0.819,5.373,0.624,6.192,3.224c0.819,2.6-0.624,5.373-3.225,6.192
			C366.915,163.532,366.377,163.604,365.869,163.598z"/>
	</g>
	<g>
		<path d="M355.316,188.822c0,0,0.023,0.139,0.066,0.4c0.056,0.32,0.088,0.661,0.14,1.137c0.083,0.922,0.141,2.209,0.108,3.727
			c-0.042,0.755-0.052,1.577-0.148,2.431c-0.07,0.858-0.178,1.755-0.326,2.674c-0.114,0.926-0.336,1.859-0.515,2.814
			c-0.21,0.948-0.461,1.9-0.706,2.85c-0.294,0.937-0.56,1.879-0.874,2.788c-0.335,0.901-0.647,1.792-0.981,2.64
			c-0.36,0.835-0.709,1.644-1.04,2.409c-0.341,0.759-0.713,1.453-1.03,2.104c-0.323,0.648-0.612,1.245-0.916,1.748
			c-0.291,0.51-0.545,0.954-0.754,1.319c-0.418,0.73-0.656,1.147-0.656,1.147c-0.443,0.776-1.433,1.045-2.209,0.601
			c-0.729-0.417-1.012-1.317-0.673-2.068l0.042-0.092c0,0,0.188-0.415,0.519-1.142c0.165-0.362,0.365-0.802,0.595-1.307
			c0.243-0.498,0.461-1.084,0.707-1.718c0.239-0.636,0.528-1.313,0.78-2.048c0.24-0.737,0.493-1.514,0.756-2.318
			c0.235-0.81,0.444-1.655,0.677-2.506c0.21-0.856,0.37-1.737,0.56-2.607c0.14-0.879,0.287-1.757,0.397-2.622
			c0.076-0.868,0.203-1.717,0.225-2.542c0.057-0.823,0.077-1.616,0.068-2.366c0.018-0.751-0.044-1.451-0.065-2.098
			c-0.093-1.288-0.239-2.333-0.368-3.034c-0.07-0.333-0.128-0.63-0.162-0.739c-0.044-0.169-0.067-0.259-0.067-0.259l-0.02-0.075
			c-0.42-1.605,0.542-3.247,2.148-3.667c1.606-0.419,3.247,0.543,3.667,2.148C355.282,188.641,355.302,188.734,355.316,188.822z"/>
	</g>
	<path d="M395.638,175.839c-3.726-3.457-7.471-6.889-11.222-10.311l0.485,0.379c-0.261-0.157-0.318-0.208-0.462-0.314
		c-0.121-0.095-0.238-0.195-0.352-0.305c-0.228-0.223-0.452-0.482-0.652-0.816c-0.415-0.644-0.641-1.711-0.429-2.576
		c0.198-0.862,0.601-1.423,0.938-1.822c0.356-0.42,0.688-0.695,1.017-0.954c0.32-0.241,0.633-0.448,0.938-0.632
		c0.301-0.173,0.605-0.35,0.896-0.491c0.591-0.305,1.161-0.547,1.733-0.783c2.275-0.908,4.496-1.53,6.724-2.109
		c1.605-0.417,3.245,0.547,3.662,2.152c0.417,1.606-0.547,3.245-2.152,3.662c-0.089,0.023-0.177,0.042-0.266,0.056l-0.02,0.004
		c-2.109,0.345-4.217,0.746-6.128,1.316c-0.471,0.145-0.939,0.295-1.352,0.463c-0.218,0.081-0.401,0.169-0.592,0.253
		c-0.181,0.086-0.339,0.171-0.474,0.248c-0.116,0.072-0.221,0.145-0.229,0.144c-0.036,0.008,0.055-0.072,0.123-0.391
		c0.084-0.322-0.033-0.807-0.171-0.973c-0.061-0.093-0.107-0.136-0.143-0.161l-0.168-0.097l0.485,0.379
		c3.416,3.768,6.82,7.54,10.2,11.332c0.617,0.691,0.557,1.751-0.134,2.368C397.245,176.44,396.264,176.417,395.638,175.839z"/>
	<g>
		<path d="M397.47,161.72c-0.151,0.06-0.297,0.128-0.458,0.17c-0.119,0.031-0.235,0.056-0.353,0.075
			c-1.759,0.288-4.011,0.69-6.024,1.291c-0.121,0.037-0.242,0.075-0.363,0.113c0.5,0.553,0.995,1.11,1.495,1.663
			c1.126-0.242,2.045-0.57,2.656-1.012C395.755,163.056,396.737,162.33,397.47,161.72z"/>
		<path d="M382.578,164.988c-0.582-0.902-0.807-2.251-0.543-3.329c0.248-1.076,0.772-1.789,1.146-2.229
			c0.421-0.496,0.82-0.824,1.161-1.093c0.367-0.277,0.707-0.502,1.039-0.703c0.364-0.21,0.678-0.39,0.975-0.535
			c0.626-0.324,1.254-0.587,1.791-0.808c2.216-0.885,4.341-1.499,6.853-2.152c0.33-0.086,0.669-0.129,1.008-0.129
			c0.808,0,1.563,0.253,2.201,0.676c-0.794-0.893-1.897-1.433-3.098-1.363l-25.849,0.426c1.082,0.732,1.926,1.809,2.342,3.128
			c0.983,3.122-0.756,6.463-3.878,7.447c-0.012,0.004-0.025,0.005-0.037,0.009c0,0,0.001,0.001,0.002,0.001
			c0,0,7.948,1.093,15.311,1.245C382.846,165.389,382.702,165.194,382.578,164.988z"/>
	</g>
	<g>
		<path d="M383.826,192.204c0,0,2.103,1.172,5.333,2.731c1.611,0.787,3.503,1.676,5.544,2.588c1.02,0.458,2.071,0.937,3.15,1.393
			c0.539,0.232,1.082,0.466,1.627,0.701l0.818,0.352l0.205,0.088l0.052,0.022l0.013,0.005c-0.308-0.104-0.078-0.026-0.143-0.048
			l0.026,0.009l0.105,0.035c0.137,0.044,0.302,0.102,0.377,0.118c0.311,0.091,0.934,0.254,1.483,0.394
			c0.568,0.14,1.134,0.279,1.695,0.417c1.136,0.255,2.254,0.506,3.335,0.749c1.085,0.246,2.142,0.443,3.14,0.649
			c1,0.207,1.949,0.376,2.824,0.539c3.504,0.646,5.862,0.941,5.862,0.941c1.623,0.203,2.774,1.683,2.571,3.306
			c-0.202,1.623-1.683,2.774-3.306,2.572c-0.107-0.014-0.218-0.034-0.32-0.058c0,0-2.322-0.553-5.837-1.206
			c-0.879-0.16-1.832-0.334-2.84-0.517c-1.011-0.173-2.076-0.356-3.179-0.545c-1.108-0.182-2.252-0.37-3.415-0.561
			c-0.586-0.093-1.178-0.187-1.771-0.281c-0.61-0.106-1.152-0.184-1.998-0.367l-0.485-0.11l-0.108-0.026l-0.027-0.006l-0.183-0.06
			l-0.054-0.016l-0.214-0.063l-0.855-0.254c-0.569-0.169-1.137-0.337-1.698-0.504c-1.122-0.341-2.237-0.648-3.314-0.95
			c-2.153-0.607-4.176-1.138-5.919-1.566c-3.48-0.873-5.85-1.322-5.85-1.322c-2.679-0.508-4.438-3.092-3.929-5.771
			c0.508-2.679,3.092-4.438,5.771-3.929c0.526,0.1,1.017,0.28,1.462,0.525L383.826,192.204z"/>
	</g>
	<path d="M376.487,199.842c-0.893-1.311-1.221-2.891-0.925-4.449c0.383-2.019,1.772-3.625,3.579-4.371l-25.246-5.619
		c-0.448-0.12-0.898-0.13-1.341-0.081c1.734,0.088,3.229,1.28,3.673,2.977c0.03,0.121,0.056,0.243,0.075,0.357l0.066,0.403
		c0.049,0.278,0.082,0.579,0.124,0.969l0.023,0.222c0.073,0.813,0.15,2.122,0.114,3.856l-0.032,0.695
		c-0.024,0.583-0.051,1.197-0.123,1.827c-0.04,0.487-0.095,0.991-0.159,1.499c7.599,2.614,22.225,3.576,22.225,3.576
		c0.016,0,0.028-0.002,0.044-0.002C377.758,201.257,377.031,200.641,376.487,199.842z"/>
</g>
<g>
	<path d="M214.956,369.558c-0.107-0.388-0.251-0.755-0.411-1.111c-0.026-0.057-0.049-0.114-0.077-0.17
		c-0.167-0.348-0.358-0.677-0.571-0.989c-0.021-0.031-0.044-0.061-0.066-0.092c-0.465-0.66-1.026-1.236-1.66-1.712
		c-0.003-0.003-0.006-0.006-0.01-0.009c0.001,0.001,0.001,0.002,0.001,0.002c-1.834-1.373-4.258-1.919-6.636-1.261
		c-4.078,1.129-6.471,5.35-5.343,9.428c0.236,0.854,0.639,1.62,1.148,2.3l0,0c0,0,0.001,0,0.001,0.001
		c0.479,0.638,1.057,1.192,1.701,1.656c0.01,0.007,0.02,0.014,0.03,0.021c0.629,0.449,1.316,0.811,2.032,1.073
		c0.031,0.012,0.061,0.023,0.091,0.035c0.345,0.122,0.694,0.223,1.046,0.299c0.042,0.01,0.083,0.016,0.125,0.023
		c0.324,0.065,0.648,0.111,0.972,0.135c0.039,0.003,0.078,0.009,0.117,0.011c0.334,0.02,0.664,0.013,0.99-0.013
		c0.071-0.006,0.141-0.015,0.212-0.022c0.328-0.037,0.652-0.09,0.965-0.176C213.143,378.01,216.085,373.637,214.956,369.558z"/>
	<g>
		<path d="M222.735,365.011c-0.072,0-0.146-0.007-0.22-0.021l-4.919-1.026c-0.386-0.081-0.696-0.366-0.81-0.743l-0.717-2.375
			c-0.172-0.567,0.15-1.168,0.718-1.34c0.571-0.167,1.169,0.15,1.34,0.72l0.532,1.763l4.294,0.896
			c0.582,0.121,0.955,0.691,0.833,1.272C223.681,364.663,223.233,365.011,222.735,365.011z"/>
	</g>
	<g>
		<path d="M158.559,416.044c-1.484,0-2.688-1.203-2.688-2.688V400.55c0-1.212,0.811-2.274,1.981-2.594l62.193-16.947v-22.782
			c0-1.484,1.204-2.689,2.688-2.689c1.484,0,2.688,1.204,2.688,2.689v24.837c0,1.212-0.812,2.274-1.982,2.594l-62.194,16.947v10.752
			C161.247,414.841,160.044,416.044,158.559,416.044z"/>
	</g>
	<g>
		<path d="M222.734,401.498h-64.175c-0.524,0-0.948-0.424-0.948-0.948c0-0.523,0.424-0.948,0.948-0.948h64.175
			c0.524,0,0.948,0.425,0.948,0.948C223.683,401.074,223.258,401.498,222.734,401.498z"/>
	</g>
	<path d="M222.734,375.983c-2.095,0-3.794,1.698-3.794,3.793v33.58c0,2.095,1.698,3.793,3.794,3.793
		c2.095,0,3.793-1.698,3.793-3.793v-33.58C226.527,377.682,224.829,375.983,222.734,375.983z"/>
	<g>
		<path style="fill:#FF9311;" d="M145.646,398.082l-0.001-0.045C145.637,398.005,145.64,398.034,145.646,398.082z"/>
	</g>
	<g>
		<path d="M162.096,385.289c0,0-1.831,1.036-4.576,2.588c-1.369,0.779-2.963,1.698-4.671,2.724
			c-0.854,0.515-1.737,1.055-2.643,1.637c-0.454,0.292-0.914,0.594-1.388,0.922c-0.486,0.343-0.944,0.655-1.573,1.196
			c-0.167,0.15-0.334,0.295-0.603,0.595c-0.068,0.078-0.12,0.135-0.224,0.272c-0.1,0.139-0.149,0.189-0.304,0.454
			c-0.064,0.11-0.123,0.226-0.177,0.341c-0.072,0.153-0.175,0.435-0.227,0.66c-0.031,0.128-0.052,0.218-0.074,0.379
			c-0.029,0.22-0.038,0.45-0.025,0.681c0.012,0.221,0.046,0.44,0.096,0.649c-0.012-0.053-0.028-0.122-0.041-0.178l-0.001-0.003
			c-0.001-0.002-0.001-0.003-0.001-0.004c-0.001-0.002-0.001-0.004-0.002-0.006c-0.006-0.04-0.012-0.08-0.016-0.113l0.002,0.209
			c-0.002,0.412-0.023,0.909-0.047,1.391c-0.063,0.994-0.126,1.975-0.187,2.922c-0.154,1.923-0.299,3.719-0.422,5.258
			c-0.294,3.083-0.488,5.139-0.488,5.139l-0.003,0.035c-0.163,1.729,1.078,3.278,2.806,3.498c0.01,0.001,0.02,0.006,0.03,0.007
			c1.77,0.207,3.372-1.059,3.58-2.828c0,0,0.243-2.073,0.608-5.182c0.176-1.561,0.381-3.38,0.601-5.33
			c0.096-0.991,0.194-2.017,0.294-3.059c0.027-0.333-0.105-0.72,0.073-1.023c0.042-0.07,0.137-0.089,0.205-0.131
			c0.405-0.249,0.812-0.493,1.213-0.736c0.834-0.488,13.538-5.398,13.598-5.432C174.063,386.469,166.281,381.938,162.096,385.289z"
			/>
	</g>
	<path d="M196.672,374.679l-0.041-0.016c-0.009-0.006-0.011-0.007-0.021-0.014c-0.095-0.08-0.244-0.188-0.419-0.399
		c-0.18-0.173-0.377-0.473-0.596-0.781c-0.207-0.343-0.44-0.713-0.646-1.176c-0.235-0.426-0.412-0.96-0.629-1.48
		c-0.196-0.539-0.368-1.128-0.555-1.716c-0.15-0.614-0.304-1.239-0.457-1.863c-0.122-0.644-0.243-1.287-0.363-1.921
		c-0.09-0.648-0.178-1.285-0.263-1.902c-0.152-1.064-0.215-2.086-0.297-2.991c-0.573,0.162-1.198,0.258-1.885,0.258
		c-1.148,0-2.132-0.253-2.962-0.679c-0.001,0.058-0.002,0.109-0.003,0.167c0.042,1.084,0.025,2.343,0.129,3.709
		c0.052,0.684,0.105,1.39,0.159,2.107c0.09,0.723,0.181,1.457,0.272,2.191c0.133,0.74,0.266,1.48,0.397,2.21
		c0.179,0.733,0.344,1.456,0.549,2.159c0.236,0.706,0.423,1.386,0.716,2.039c0.247,0.649,0.565,1.27,0.869,1.84
		c0.339,0.573,0.649,1.095,1.032,1.559c0.345,0.462,0.741,0.863,1.099,1.189c0.368,0.328,0.717,0.575,1.04,0.768
		c0.222,0.124,0.418,0.215,0.52,0.261c0.038,0.018,0.058,0.026,0.058,0.026c0.055,0.024,0.118,0.051,0.175,0.072
		c1.551,0.586,3.284-0.196,3.87-1.748C199.006,376.997,198.224,375.265,196.672,374.679z M196.672,374.69
		c0.015,0.008,0.028,0.014,0.042,0.022C196.744,374.728,196.717,374.717,196.672,374.69z"/>
	<path d="M200.134,378.653c-0.163-0.587-0.325-1.059-0.542-1.462c0.043,0.574-0.027,1.155-0.236,1.71
		c-0.585,1.549-2.09,2.589-3.745,2.589c-0.483,0-0.959-0.087-1.414-0.259c-0.075-0.028-0.158-0.063-0.229-0.095
		c-0.178-0.08-0.403-0.185-0.658-0.327c-0.445-0.265-0.835-0.553-1.218-0.895c-0.499-0.455-0.9-0.89-1.234-1.338
		c-0.406-0.488-0.739-1.051-1.091-1.646c-0.346-0.646-0.681-1.304-0.943-1.995c-0.146-0.323-0.269-0.674-0.386-1.027
		c-8.361,1.58-22.841,9.036-23.282,9.265c0.079-0.003,0.156-0.02,0.235-0.02c2.397,0,4.535,1.3,5.318,3.234
		c0.448,1.107,0.777,3.243-1.397,5.945l27.896-7.717C199.554,383.966,200.866,381.296,200.134,378.653z"/>
	<path d="M190.647,341.571c-5.344,0-9.676,4.332-9.676,9.676c0,5.343,4.332,9.675,9.676,9.675c5.344,0,9.676-4.332,9.676-9.675
		C200.323,345.903,195.991,341.571,190.647,341.571z M190.647,359.785c-4.72,0-8.542-3.822-8.542-8.54
		c0-4.715,3.822-8.537,8.542-8.537c4.72,0,8.542,3.822,8.542,8.537C199.189,355.963,195.367,359.785,190.647,359.785z"/>
	<path d="M190.647,343.694c-4.175,0-7.556,3.381-7.556,7.551c0,4.174,3.381,7.555,7.556,7.555c4.175,0,7.556-3.381,7.556-7.555
		C198.203,347.075,194.822,343.694,190.647,343.694z M190.647,354.468c-1.78,0-3.223-1.441-3.223-3.222
		c0-1.778,1.442-3.221,3.223-3.221c1.78,0,3.223,1.442,3.223,3.221C193.87,353.026,192.427,354.468,190.647,354.468z"/>
</g>
</svg>
