<?xml version="1.0" standalone="no"?>
<!DOCTYPE svg PUBLIC "-//W3C//DTD SVG 20010904//EN"
 "http://www.w3.org/TR/2001/REC-SVG-20010904/DTD/svg10.dtd">
<svg version="1.0" xmlns="http://www.w3.org/2000/svg"
 width="594.000000pt" height="420.000000pt" viewBox="0 0 594.000000 420.000000"
 preserveAspectRatio="xMidYMid meet">

<g transform="translate(0.000000,420.000000) scale(0.100000,-0.100000)"
fill="#000000" stroke="none">
<path d="M1860 2605 c0 -9 9 -33 20 -54 18 -37 35 -76 80 -193 12 -29 32 -77
45 -106 14 -29 25 -55 25 -57 0 -3 9 -24 20 -48 11 -23 26 -60 34 -82 8 -22
29 -73 45 -112 17 -40 45 -106 62 -145 16 -40 37 -91 45 -113 8 -22 22 -57 31
-77 l17 -38 257 0 256 0 17 43 c9 23 16 48 16 54 0 7 11 49 25 95 29 94 67
223 114 383 18 61 44 148 58 195 13 47 35 119 49 161 37 118 50 109 -145 109
l-169 0 -22 -72 c-12 -40 -29 -98 -39 -128 -10 -30 -32 -100 -49 -155 -17 -55
-47 -149 -66 -210 -19 -60 -37 -127 -41 -147 -9 -50 -22 -48 -30 5 -3 23 -30
103 -60 177 -29 74 -79 200 -110 280 -31 80 -66 169 -78 198 l-21 52 -193 0
c-167 0 -193 -2 -193 -15z"/>
<path d="M4255 2398 c-4 -18 -19 -71 -35 -118 -15 -47 -53 -166 -84 -265 -61
-194 -87 -273 -94 -292 -3 -10 18 -13 87 -13 l90 0 12 43 c7 23 36 116 65 207
29 91 67 210 85 265 17 55 39 124 50 153 l18 52 -94 0 -93 0 -7 -32z"/>
<path d="M4466 2333 c-10 -32 -26 -83 -36 -113 -10 -30 -33 -102 -51 -160 -18
-58 -45 -144 -61 -191 -15 -48 -28 -91 -28 -98 0 -16 149 -15 154 2 2 6 29 91
60 187 31 96 56 179 56 185 0 5 11 39 24 75 13 36 30 89 39 118 l15 52 -78 0
-77 0 -17 -57z"/>
<path d="M4675 2303 c-4 -16 -17 -59 -30 -98 -12 -38 -37 -117 -55 -175 -18
-58 -41 -129 -52 -158 -10 -29 -18 -55 -18 -57 0 -3 29 -5 65 -5 44 0 67 4 69
13 8 26 69 217 111 351 25 76 45 143 45 147 0 5 -29 9 -65 9 -62 0 -65 -1 -70
-27z"/>
<path d="M4011 2101 c-12 -38 -21 -74 -21 -80 0 -7 22 -11 54 -11 l54 0 21 67
c30 94 30 93 -33 93 l-54 0 -21 -69z"/>
</g>
</svg>
